<svg id="Layer_1" data-name="Layer 1" xmlns="http://www.w3.org/2000/svg" viewBox="0 0 817 500"><title>grupomiranda</title><rect width="817" height="500" fill="#8e2a2a"/><path d="M342.56,204.925h14.413l12.938,34.184,11.906-34.184h14.742v2.195h-3.6a4.179,4.179,0,0,0-2.562.556,2.421,2.421,0,0,0-.658,1.932V243.88a1.818,1.818,0,0,0,.79,1.58,4.932,4.932,0,0,0,2.722.556h3.308v2.2H376.745v-2.2h3.7a3.787,3.787,0,0,0,2.352-.6,1.866,1.866,0,0,0,.763-1.536V207.12l-14.312,41.091h-1.972L351.867,207.3v31.462a9.669,9.669,0,0,0,.7,4.2,4.992,4.992,0,0,0,2,2.136,10.417,10.417,0,0,0,4.317.922v2.2H342.56v-2.2q4.01-.262,5.444-1.727t1.434-5.18V209.257a1.913,1.913,0,0,0-.672-1.625,4.411,4.411,0,0,0-2.518-.512H342.56Z" fill="#fff"/><path d="M400.363,204.925h19.96v2.195H416.9q-2.283,0-2.882.571a3.427,3.427,0,0,0-.6,2.414v32.78a2.46,2.46,0,0,0,3.073,3.131h3.834v2.2h-19.96v-2.2h3.776a3.856,3.856,0,0,0,2.575-.585,3.8,3.8,0,0,0,.586-2.546v-32.78q0-1.872-.528-2.312a4.929,4.929,0,0,0-3.014-.673h-3.395Z" fill="#fff"/><path d="M424.069,204.925H446.43q6.5,0,10.083,2.956a9.569,9.569,0,0,1,3.585,7.756,9.345,9.345,0,0,1-1.419,5.107,9.969,9.969,0,0,1-4.1,3.571,25.965,25.965,0,0,1-8.414,1.917,20.407,20.407,0,0,1,5.751,2.239,8.15,8.15,0,0,1,2.524,2.838,33.236,33.236,0,0,1,2.193,7.1,16.163,16.163,0,0,0,1.883,5.238,2.083,2.083,0,0,0,1.638,1.083q.908,0,1.683-1.331a11.29,11.29,0,0,0,.951-4.7h1.99q-.556,9.95-7.345,9.95a6.345,6.345,0,0,1-3.7-1.083,6.517,6.517,0,0,1-2.356-3.19A46.244,46.244,0,0,1,450,236.1a15.193,15.193,0,0,0-1.391-5.532,6.762,6.762,0,0,0-2.97-2.634,10.833,10.833,0,0,0-4.83-1h-3.541v17a1.833,1.833,0,0,0,.556,1.522,3.524,3.524,0,0,0,2.195.556h4.157v2.2H424.069v-2.2h4.244a3.162,3.162,0,0,0,2.064-.556,1.888,1.888,0,0,0,.658-1.522V209.345a2.042,2.042,0,0,0-.673-1.669,3.17,3.17,0,0,0-2.049-.556h-4.244Zm13.2,19.9h5.122q5.151,0,8.063-1.942t2.912-6.911a11.219,11.219,0,0,0-1.1-5.405,5.822,5.822,0,0,0-2.882-2.717q-1.787-.731-7.025-.731-3.452,0-4.272.482a1.758,1.758,0,0,0-.82,1.651Z" fill="#fff"/><path d="M486.779,204.018h1.96l15.523,39.6a3.705,3.705,0,0,0,3.834,2.4h1.346v2.2H492.175v-2.2h1.375a8.811,8.811,0,0,0,3.8-.585,1.34,1.34,0,0,0,.762-1.259,3.066,3.066,0,0,0-.2-1.053l-3.581-9.19H477.21L475.2,239.2a10.233,10.233,0,0,0-.79,3.336,3.023,3.023,0,0,0,1.332,2.459,6.271,6.271,0,0,0,3.878,1.024h1.463v2.2H465.394v-2.2a6.493,6.493,0,0,0,3.98-1.1,9.644,9.644,0,0,0,2.692-4.171Zm-.853,8.341-7.772,19.287H493.44Z" fill="#fff"/><path d="M511.578,204.925H521.91l26.107,34.008V214.32q0-3.717-1.7-5.5a6.246,6.246,0,0,0-4.624-1.7v-2.195h15.161v2.195a7.3,7.3,0,0,0-3.47.644,5.28,5.28,0,0,0-2,2.341,8.158,8.158,0,0,0-.853,3.717v34.389h-2.751L520.768,212.8v26.125a7.078,7.078,0,0,0,1.786,5.286q1.785,1.743,5.531,1.8v2.2H511.578v-2.2a6.83,6.83,0,0,0,4.917-2.031,6.562,6.562,0,0,0,1.815-4.691V209.981l-.514-.565a9.427,9.427,0,0,0-2.075-1.886,5.039,5.039,0,0,0-2.188-.41h-1.955Z" fill="#fff"/><path d="M560.017,204.925h22.36a18.624,18.624,0,0,1,8.458,1.756,18.436,18.436,0,0,1,7.36,7.405,23.857,23.857,0,0,1,3.03,12.262,28.964,28.964,0,0,1-1.815,10.537,16.811,16.811,0,0,1-4.229,6.292,18.272,18.272,0,0,1-6.951,4.039,27.363,27.363,0,0,1-8.2,1H560.017v-2.2h4.1a3.462,3.462,0,0,0,2.151-.5,1.9,1.9,0,0,0,.6-1.551V209.11a1.8,1.8,0,0,0-.644-1.449,2.7,2.7,0,0,0-1.786-.541h-4.418ZM575.7,207.12a2.876,2.876,0,0,0-1.946.556,2.11,2.11,0,0,0-.63,1.669V243.88a1.859,1.859,0,0,0,.732,1.595,4.308,4.308,0,0,0,2.488.541h3.687a14.956,14.956,0,0,0,8.663-2.546,10.5,10.5,0,0,0,3.688-4.77q1.727-4.156,1.727-11.474,0-10.827-3.776-15.862-3.22-4.244-9.716-4.244Z" fill="#fff"/><path d="M625.535,204.018h1.96l15.523,39.6a3.7,3.7,0,0,0,3.833,2.4H648.2v2.2H630.931v-2.2h1.375a8.811,8.811,0,0,0,3.8-.585,1.34,1.34,0,0,0,.762-1.259,3.066,3.066,0,0,0-.2-1.053l-3.581-9.19h-17.12l-2.011,5.268a10.233,10.233,0,0,0-.79,3.336,3.023,3.023,0,0,0,1.332,2.459,6.271,6.271,0,0,0,3.878,1.024h1.463v2.2H604.15v-2.2a6.493,6.493,0,0,0,3.98-1.1,9.653,9.653,0,0,0,2.692-4.171Zm-.853,8.341-7.772,19.287H632.2Z" fill="#fff"/><path d="M394.053,277.485h-6.818l-1.411,3.207h-1.888l5.81-12.828h1.814l5.828,12.828h-1.924Zm-.642-1.466-2.768-6.286-2.766,6.286Z" fill="#fff"/><path d="M426.459,277.228c0,2.2-1.667,3.464-4.911,3.464h-6.121V267.864h5.755c2.95,0,4.6,1.246,4.6,3.316a3.039,3.039,0,0,1-1.722,2.859A3.1,3.1,0,0,1,426.459,277.228Zm-9.2-7.88v4.1h3.757c1.869,0,2.931-.7,2.931-2.052s-1.062-2.053-2.931-2.053Zm7.348,7.733c0-1.484-1.1-2.144-3.133-2.144H417.26v4.27h4.215C423.509,279.207,424.608,278.566,424.608,277.081Z" fill="#fff"/><path d="M444.389,274.278a6.822,6.822,0,1,1,6.835,6.56A6.52,6.52,0,0,1,444.389,274.278Zm11.8,0a4.985,4.985,0,1,0-4.966,4.929A4.816,4.816,0,0,0,456.19,274.278Z" fill="#fff"/><path d="M485.85,274.2h1.758v5a7.58,7.58,0,0,1-4.856,1.631,6.567,6.567,0,1,1,.037-13.121,6.432,6.432,0,0,1,4.93,1.979l-1.137,1.136a5.086,5.086,0,0,0-3.72-1.484,4.932,4.932,0,1,0-.018,9.859,5.436,5.436,0,0,0,3.006-.824Z" fill="#fff"/><path d="M515.416,277.485H508.6l-1.412,3.207H505.3l5.809-12.828h1.815l5.827,12.828h-1.924Zm-.642-1.466-2.767-6.286-2.767,6.286Z" fill="#fff"/><path d="M536.79,267.864H542.2c4.124,0,6.928,2.6,6.928,6.414s-2.8,6.414-6.928,6.414H536.79Zm5.3,11.233c3.17,0,5.2-1.942,5.2-4.819s-2.034-4.82-5.2-4.82h-3.464V279.1Z" fill="#fff"/><path d="M567.018,274.278a6.822,6.822,0,1,1,6.834,6.56A6.52,6.52,0,0,1,567.018,274.278Zm11.8,0a4.985,4.985,0,1,0-4.967,4.929A4.817,4.817,0,0,0,578.819,274.278Z" fill="#fff"/><path d="M598.416,279.226l.679-1.43a6.6,6.6,0,0,0,4.233,1.485c2.217,0,3.17-.862,3.17-1.979,0-3.134-7.771-1.155-7.771-5.92,0-1.979,1.541-3.665,4.913-3.665a7.551,7.551,0,0,1,4.123,1.136l-.605,1.466a6.632,6.632,0,0,0-3.518-1.044c-2.182,0-3.117.916-3.117,2.034,0,3.134,7.771,1.173,7.771,5.883,0,1.961-1.576,3.646-4.966,3.646A7.615,7.615,0,0,1,598.416,279.226Z" fill="#fff"/><path d="M434.915,186.777h1.759v5a7.582,7.582,0,0,1-4.857,1.63,6.567,6.567,0,1,1,.037-13.121,6.434,6.434,0,0,1,4.93,1.979l-1.137,1.137a5.08,5.08,0,0,0-3.719-1.485,4.933,4.933,0,1,0-.019,9.86,5.437,5.437,0,0,0,3.006-.825Z" fill="#fff"/><path d="M464.885,193.264l-2.768-3.94c-.257.018-.531.037-.807.037h-3.169v3.9h-1.833V180.436h5c3.336,0,5.352,1.686,5.352,4.472a4.047,4.047,0,0,1-2.822,4.049l3.042,4.307Zm-.056-8.356c0-1.833-1.228-2.878-3.573-2.878h-3.115V187.8h3.115C463.6,187.8,464.829,186.74,464.829,184.908Z" fill="#fff"/><path d="M485.654,187.73v-7.294h1.832v7.22c0,2.841,1.3,4.124,3.611,4.124s3.629-1.283,3.629-4.124v-7.22H496.5v7.294c0,3.72-2.034,5.68-5.425,5.68C487.707,193.41,485.654,191.45,485.654,187.73Z" fill="#fff"/><path d="M526.748,184.908c0,2.785-2.016,4.471-5.352,4.471h-3.17v3.885h-1.833V180.436h5C524.732,180.436,526.748,182.122,526.748,184.908Zm-1.833,0c0-1.833-1.228-2.878-3.573-2.878h-3.116v5.754h3.116C523.687,187.784,524.915,186.74,524.915,184.908Z" fill="#fff"/><path d="M544.714,186.85a6.822,6.822,0,1,1,6.835,6.56A6.52,6.52,0,0,1,544.714,186.85Zm11.8,0a4.985,4.985,0,1,0-4.967,4.93A4.817,4.817,0,0,0,556.516,186.85Z" fill="#fff"/><circle cx="249.286" cy="223.997" r="80.484" fill="#fff"/><path d="M307.118,233.648a1.893,1.893,0,0,0-1.3-.519h-1.37a1.21,1.21,0,0,1-1.169-.9L289.446,180.46a2.992,2.992,0,0,0-3.271-1.849H255.91a.813.813,0,0,1-.786-.633,6.034,6.034,0,0,0-11.677,0,.811.811,0,0,1-.785.633H214.041a2.992,2.992,0,0,0-3.271,1.849l-15.45,51.8a1.209,1.209,0,0,1-1.159.865h-1.735a1.443,1.443,0,0,0-1.451,1.629c.55,5.925,3.453,8.5,7.758,11.227a10.366,10.366,0,0,0,5.547,1.6h17.076a10.158,10.158,0,0,0,5.412-1.548c4.269-2.687,7.209-5.529,7.806-11.013a1.65,1.65,0,0,0-.477-1.376,1.893,1.893,0,0,0-1.3-.519h-1.37a1.212,1.212,0,0,1-1.17-.9L218.385,187.8a.806.806,0,0,1,.779-1.015h61.659a.807.807,0,0,1,.774,1.037l-13.256,44.446a1.211,1.211,0,0,1-1.16.865h-1.734A1.441,1.441,0,0,0,264,234.758c.55,5.924,3.451,8.5,7.756,11.225a10.37,10.37,0,0,0,5.553,1.6h17.071a10.17,10.17,0,0,0,5.413-1.548c4.268-2.687,7.209-5.529,7.805-11.013A1.649,1.649,0,0,0,307.118,233.648Zm-85.249-.815a.4.4,0,0,1-.393.5h-17.4a.4.4,0,0,1-.393-.5l8.7-36.516a.4.4,0,0,1,.785,0Zm72.627.5H277.1a.4.4,0,0,1-.393-.5l8.7-36.516a.4.4,0,0,1,.786,0l8.7,36.516A.4.4,0,0,1,294.5,233.33Z" fill="#8e2a2a"/><path d="M272.231,265.348h-.152A16.945,16.945,0,0,1,255.135,248.4l-1.174-53.844a1.614,1.614,0,0,0-1.612-1.578l-6.162-.006a1.614,1.614,0,0,0-1.614,1.58L243.436,248.4a16.944,16.944,0,0,1-16.944,16.944h-.151a2.023,2.023,0,0,0-2.017,2.017v5.144a2.022,2.022,0,0,0,2.017,2.017h45.89a2.023,2.023,0,0,0,2.017-2.017v-5.144A2.023,2.023,0,0,0,272.231,265.348Z" fill="#8e2a2a"/><path d="M180.16,352.94c0,2.2-1.626,3.455-4.859,3.455h-5.949V343.463h5.58c2.881,0,4.544,1.219,4.544,3.326a3,3,0,0,1-1.977,2.937A3.087,3.087,0,0,1,180.16,352.94Zm-9.441-8.35v4.692h4.12c2.069,0,3.27-.794,3.27-2.346s-1.2-2.346-3.27-2.346Zm8.073,8.239c0-1.68-1.237-2.42-3.51-2.42h-4.563v4.859h4.563C177.555,355.268,178.792,354.529,178.792,352.829Z" fill="#fff"/><path d="M193.974,346.678V356.4h-1.257v-1.774a3.863,3.863,0,0,1-3.492,1.866c-2.475,0-4.1-1.385-4.1-4.175v-5.634h1.311v5.5c0,2.069,1.071,3.122,2.919,3.122,2.032,0,3.307-1.311,3.307-3.529v-5.1Z" fill="#fff"/><path d="M198.514,355.287l.591-1.035a5.866,5.866,0,0,0,3.455,1.09c1.847,0,2.6-.628,2.6-1.589,0-2.531-6.3-.536-6.3-4.378,0-1.589,1.367-2.772,3.842-2.772a6.582,6.582,0,0,1,3.436.906l-.572,1.053a4.984,4.984,0,0,0-2.864-.832c-1.754,0-2.531.684-2.531,1.608,0,2.623,6.3.646,6.3,4.378,0,1.682-1.478,2.771-4.009,2.771A6.494,6.494,0,0,1,198.514,355.287Z" fill="#fff"/><path d="M210.13,351.536a4.783,4.783,0,0,1,5.006-4.933,4.244,4.244,0,0,1,3.806,1.922l-.979.665a3.3,3.3,0,0,0-2.827-1.441,3.789,3.789,0,0,0,0,7.575,3.288,3.288,0,0,0,2.827-1.423l.979.665a4.282,4.282,0,0,1-3.806,1.921A4.8,4.8,0,0,1,210.13,351.536Z" fill="#fff"/><path d="M231.058,350.372V356.4H229.8V354.88a3.649,3.649,0,0,1-3.344,1.607c-2.2,0-3.548-1.145-3.548-2.826,0-1.5.961-2.753,3.751-2.753h3.085v-.591c0-1.663-.943-2.568-2.753-2.568a4.95,4.95,0,0,0-3.233,1.146l-.591-.979a6.167,6.167,0,0,1,3.954-1.313C229.635,346.6,231.058,347.86,231.058,350.372Zm-1.312,3.1v-1.589H226.7c-1.884,0-2.494.739-2.494,1.737,0,1.127.905,1.829,2.457,1.829A3.108,3.108,0,0,0,229.746,353.476Z" fill="#fff"/><path d="M235.487,355.287l.591-1.035a5.871,5.871,0,0,0,3.455,1.09c1.847,0,2.605-.628,2.605-1.589,0-2.531-6.3-.536-6.3-4.378,0-1.589,1.366-2.772,3.842-2.772a6.588,6.588,0,0,1,3.436.906l-.572,1.053a4.986,4.986,0,0,0-2.864-.832c-1.755,0-2.531.684-2.531,1.608,0,2.623,6.3.646,6.3,4.378,0,1.682-1.479,2.771-4.01,2.771A6.494,6.494,0,0,1,235.487,355.287Z" fill="#fff"/><path d="M253.789,355.287l.591-1.035a5.869,5.869,0,0,0,3.455,1.09c1.847,0,2.6-.628,2.6-1.589,0-2.531-6.3-.536-6.3-4.378,0-1.589,1.367-2.772,3.843-2.772a6.588,6.588,0,0,1,3.436.906l-.573,1.053a4.981,4.981,0,0,0-2.863-.832c-1.755,0-2.531.684-2.531,1.608,0,2.623,6.3.646,6.3,4.378,0,1.682-1.478,2.771-4.009,2.771A6.494,6.494,0,0,1,253.789,355.287Z" fill="#fff"/><path d="M265.406,351.536a4.942,4.942,0,1,1,4.951,4.951A4.78,4.78,0,0,1,265.406,351.536Zm8.554,0a3.616,3.616,0,1,0-3.6,3.788A3.544,3.544,0,0,0,273.96,351.536Z" fill="#fff"/><path d="M280.181,342.687h1.312V356.4h-1.312Z" fill="#fff"/><path d="M296.122,346.678V356.4h-1.256v-1.774a3.865,3.865,0,0,1-3.492,1.866c-2.475,0-4.1-1.385-4.1-4.175v-5.634h1.312v5.5c0,2.069,1.071,3.122,2.919,3.122,2.032,0,3.306-1.311,3.306-3.529v-5.1Z" fill="#fff"/><path d="M301.032,351.536a4.783,4.783,0,0,1,5.006-4.933,4.245,4.245,0,0,1,3.806,1.922l-.979.665a3.3,3.3,0,0,0-2.827-1.441,3.789,3.789,0,0,0,0,7.575,3.288,3.288,0,0,0,2.827-1.423l.979.665a4.283,4.283,0,0,1-3.806,1.921A4.8,4.8,0,0,1,301.032,351.536Z" fill="#fff"/><path d="M314.328,343.611a.948.948,0,0,1,.962-.924.931.931,0,0,1,.96.9.961.961,0,0,1-1.922.019Zm.3,3.067h1.312V356.4h-1.312Z" fill="#fff"/><path d="M320.83,351.536a4.942,4.942,0,1,1,4.951,4.951A4.78,4.78,0,0,1,320.83,351.536Zm8.553,0a3.616,3.616,0,1,0-3.6,3.788A3.543,3.543,0,0,0,329.383,351.536Z" fill="#fff"/><path d="M344.547,350.76V356.4h-1.312v-5.506c0-2.05-1.072-3.1-2.92-3.1a3.185,3.185,0,0,0-3.4,3.51v5.1h-1.312v-9.717h1.256v1.791a4.084,4.084,0,0,1,3.695-1.866C342.921,346.6,344.547,347.971,344.547,350.76Z" fill="#fff"/><path d="M358.823,351.943h-8.129a3.6,3.6,0,0,0,3.824,3.381,3.83,3.83,0,0,0,2.974-1.275l.739.85a5.138,5.138,0,0,1-8.849-3.363,4.681,4.681,0,0,1,4.748-4.933,4.631,4.631,0,0,1,4.71,4.933C358.84,351.647,358.823,351.8,358.823,351.943Zm-8.129-.979h6.891a3.452,3.452,0,0,0-6.891,0Z" fill="#fff"/><path d="M362.383,355.287l.591-1.035a5.871,5.871,0,0,0,3.455,1.09c1.847,0,2.605-.628,2.605-1.589,0-2.531-6.3-.536-6.3-4.378,0-1.589,1.366-2.772,3.842-2.772a6.585,6.585,0,0,1,3.436.906l-.572,1.053a4.986,4.986,0,0,0-2.864-.832c-1.755,0-2.531.684-2.531,1.608,0,2.623,6.3.646,6.3,4.378,0,1.682-1.479,2.771-4.009,2.771A6.5,6.5,0,0,1,362.383,355.287Z" fill="#fff"/><path d="M374.129,355.471a.978.978,0,0,1,.979-1,.993.993,0,0,1,1,1,1.009,1.009,0,0,1-1,1.016A.994.994,0,0,1,374.129,355.471Z" fill="#fff"/><path d="M380.261,355.471a.978.978,0,0,1,.979-1,.993.993,0,0,1,1,1,1.009,1.009,0,0,1-1,1.016A.994.994,0,0,1,380.261,355.471Z" fill="#fff"/><path d="M386.392,355.471a.978.978,0,0,1,.979-1,.993.993,0,0,1,1,1,1.009,1.009,0,0,1-1,1.016A.994.994,0,0,1,386.392,355.471Z" fill="#fff"/><path d="M399.449,351.536a4.942,4.942,0,1,1,4.951,4.951A4.78,4.78,0,0,1,399.449,351.536Zm8.554,0a3.616,3.616,0,1,0-3.6,3.788A3.544,3.544,0,0,0,408,351.536Z" fill="#fff"/><path d="M424.071,351.536a4.716,4.716,0,0,1-4.84,4.951,4.21,4.21,0,0,1-3.75-2.013V356.4h-1.257V342.687h1.312v5.838a4.244,4.244,0,0,1,3.695-1.922A4.7,4.7,0,0,1,424.071,351.536Zm-1.312,0a3.625,3.625,0,1,0-3.62,3.788A3.568,3.568,0,0,0,422.759,351.536Z" fill="#fff"/><path d="M434.079,355.8a3.129,3.129,0,0,1-2.051.683,2.574,2.574,0,0,1-2.845-2.826v-5.875h-1.736v-1.108h1.736v-2.125H430.5v2.125h2.955v1.108H430.5v5.8a1.556,1.556,0,0,0,1.681,1.773,2.173,2.173,0,0,0,1.441-.5Z" fill="#fff"/><path d="M446.786,351.943h-8.128a3.6,3.6,0,0,0,3.824,3.381,3.83,3.83,0,0,0,2.974-1.275l.739.85a5.138,5.138,0,0,1-8.849-3.363,4.681,4.681,0,0,1,4.748-4.933,4.631,4.631,0,0,1,4.71,4.933C446.8,351.647,446.786,351.8,446.786,351.943Zm-8.128-.979h6.891a3.452,3.452,0,0,0-6.891,0Z" fill="#fff"/><path d="M460.638,350.76V356.4h-1.312v-5.506c0-2.05-1.072-3.1-2.92-3.1a3.185,3.185,0,0,0-3.4,3.51v5.1H451.7v-9.717h1.256v1.791a4.085,4.085,0,0,1,3.695-1.866C459.012,346.6,460.638,347.971,460.638,350.76Z" fill="#fff"/><path d="M474.914,351.943h-8.129a3.6,3.6,0,0,0,3.824,3.381,3.83,3.83,0,0,0,2.974-1.275l.74.85a5.139,5.139,0,0,1-8.85-3.363,4.681,4.681,0,0,1,4.748-4.933,4.632,4.632,0,0,1,4.711,4.933C474.932,351.647,474.914,351.8,474.914,351.943Zm-8.129-.979h6.891a3.452,3.452,0,0,0-6.891,0Z" fill="#fff"/><path d="M495.859,350.76V356.4h-1.312v-5.506c0-2.05-1.035-3.1-2.79-3.1-2,0-3.251,1.293-3.251,3.51v5.1h-1.312v-5.506c0-2.05-1.034-3.1-2.808-3.1-1.976,0-3.251,1.293-3.251,3.51v5.1h-1.312v-9.717h1.257v1.773a3.929,3.929,0,0,1,3.565-1.848,3.492,3.492,0,0,1,3.455,2.051,4.231,4.231,0,0,1,3.842-2.051C494.306,346.6,495.859,347.971,495.859,350.76Z" fill="#fff"/><path d="M500.692,351.536a4.942,4.942,0,1,1,4.951,4.951A4.78,4.78,0,0,1,500.692,351.536Zm8.553,0a3.616,3.616,0,1,0-3.6,3.788A3.543,3.543,0,0,0,509.245,351.536Z" fill="#fff"/><path d="M514.119,355.287l.591-1.035a5.869,5.869,0,0,0,3.455,1.09c1.847,0,2.6-.628,2.6-1.589,0-2.531-6.3-.536-6.3-4.378,0-1.589,1.367-2.772,3.843-2.772a6.588,6.588,0,0,1,3.436.906l-.573,1.053a4.981,4.981,0,0,0-2.863-.832c-1.755,0-2.531.684-2.531,1.608,0,2.623,6.3.646,6.3,4.378,0,1.682-1.478,2.771-4.009,2.771A6.494,6.494,0,0,1,514.119,355.287Z" fill="#fff"/><path d="M538.665,346.6v1.275c-.111,0-.222-.018-.314-.018-2.032,0-3.27,1.293-3.27,3.584V356.4h-1.312v-9.717h1.257v1.9A3.664,3.664,0,0,1,538.665,346.6Z" fill="#fff"/><path d="M551.613,351.943h-8.129a3.6,3.6,0,0,0,3.824,3.381,3.828,3.828,0,0,0,2.974-1.275l.74.85a5.139,5.139,0,0,1-8.85-3.363,4.681,4.681,0,0,1,4.748-4.933,4.632,4.632,0,0,1,4.711,4.933C551.631,351.647,551.613,351.8,551.613,351.943Zm-8.129-.979h6.891a3.452,3.452,0,0,0-6.891,0Z" fill="#fff"/><path d="M555.174,355.287l.591-1.035a5.866,5.866,0,0,0,3.455,1.09c1.847,0,2.6-.628,2.6-1.589,0-2.531-6.3-.536-6.3-4.378,0-1.589,1.367-2.772,3.842-2.772a6.585,6.585,0,0,1,3.436.906l-.572,1.053a4.986,4.986,0,0,0-2.864-.832c-1.755,0-2.531.684-2.531,1.608,0,2.623,6.3.646,6.3,4.378,0,1.682-1.478,2.771-4.009,2.771A6.491,6.491,0,0,1,555.174,355.287Z" fill="#fff"/><path d="M576.527,346.678V356.4H575.27v-1.774a3.864,3.864,0,0,1-3.492,1.866c-2.475,0-4.1-1.385-4.1-4.175v-5.634h1.311v5.5c0,2.069,1.071,3.122,2.919,3.122,2.032,0,3.307-1.311,3.307-3.529v-5.1Z" fill="#fff"/><path d="M582.415,342.687h1.312V356.4h-1.312Z" fill="#fff"/><path d="M594.754,355.8a3.129,3.129,0,0,1-2.051.683,2.574,2.574,0,0,1-2.845-2.826v-5.875h-1.737v-1.108h1.737v-2.125h1.311v2.125h2.956v1.108h-2.956v5.8a1.557,1.557,0,0,0,1.682,1.773,2.173,2.173,0,0,0,1.441-.5Z" fill="#fff"/><path d="M606.685,350.372V356.4h-1.257V354.88a3.647,3.647,0,0,1-3.344,1.607c-2.2,0-3.547-1.145-3.547-2.826,0-1.5.961-2.753,3.75-2.753h3.086v-.591c0-1.663-.943-2.568-2.753-2.568a4.95,4.95,0,0,0-3.233,1.146l-.591-.979a6.167,6.167,0,0,1,3.954-1.313C605.262,346.6,606.685,347.86,606.685,350.372Zm-1.312,3.1v-1.589h-3.048c-1.884,0-2.494.739-2.494,1.737,0,1.127.9,1.829,2.456,1.829A3.109,3.109,0,0,0,605.373,353.476Z" fill="#fff"/><path d="M621.368,342.687V356.4h-1.257v-1.921a4.208,4.208,0,0,1-3.75,2.013,4.943,4.943,0,0,1,0-9.884,4.244,4.244,0,0,1,3.7,1.922v-5.838Zm-1.293,8.849a3.616,3.616,0,1,0-3.6,3.788A3.554,3.554,0,0,0,620.075,351.536Z" fill="#fff"/><path d="M626.259,351.536a4.942,4.942,0,1,1,4.951,4.951A4.78,4.78,0,0,1,626.259,351.536Zm8.553,0a3.616,3.616,0,1,0-3.6,3.788A3.543,3.543,0,0,0,634.812,351.536Z" fill="#fff"/><path d="M639.685,355.287l.591-1.035a5.869,5.869,0,0,0,3.455,1.09c1.847,0,2.605-.628,2.605-1.589,0-2.531-6.3-.536-6.3-4.378,0-1.589,1.367-2.772,3.843-2.772a6.588,6.588,0,0,1,3.436.906l-.573,1.053a4.981,4.981,0,0,0-2.863-.832c-1.755,0-2.531.684-2.531,1.608,0,2.623,6.3.646,6.3,4.378,0,1.682-1.479,2.771-4.01,2.771A6.494,6.494,0,0,1,639.685,355.287Z" fill="#fff"/></svg>