<svg id="Layer_1" data-name="Layer 1" xmlns="http://www.w3.org/2000/svg" xmlns:xlink="http://www.w3.org/1999/xlink" viewBox="0 0 817 500"><defs><linearGradient id="linear-gradient" x1="47.298" y1="305.994" x2="-16.204" y2="415.984" gradientUnits="userSpaceOnUse"><stop offset="0" stop-color="#b6d7e1"/><stop offset="0.066" stop-color="#a3ccdd" stop-opacity="0.872"/><stop offset="0.197" stop-color="#82b9d7" stop-opacity="0.643"/><stop offset="0.331" stop-color="#65a8d1" stop-opacity="0.446"/><stop offset="0.465" stop-color="#4e9bcd" stop-opacity="0.285"/><stop offset="0.599" stop-color="#3b90c9" stop-opacity="0.16"/><stop offset="0.732" stop-color="#2e89c7" stop-opacity="0.071"/><stop offset="0.866" stop-color="#2784c5" stop-opacity="0.018"/><stop offset="1" stop-color="#2483c5" stop-opacity="0"/></linearGradient><linearGradient id="linear-gradient-2" x1="61.995" y1="245.879" x2="435.402" y2="245.879" gradientTransform="translate(-88.588 338.318) rotate(-60)" gradientUnits="userSpaceOnUse"><stop offset="0.276" stop-color="#b6d7e1"/><stop offset="0.319" stop-color="#b0d3e0" stop-opacity="0.958"/><stop offset="0.391" stop-color="#9fcadd" stop-opacity="0.843"/><stop offset="0.483" stop-color="#84bad7" stop-opacity="0.656"/><stop offset="0.591" stop-color="#5ea4d0" stop-opacity="0.397"/><stop offset="0.712" stop-color="#2e89c7" stop-opacity="0.07"/><stop offset="0.737" stop-color="#2483c5" stop-opacity="0"/></linearGradient><linearGradient id="linear-gradient-3" x1="469.953" y1="411.965" x2="907.248" y2="411.965" gradientUnits="userSpaceOnUse"><stop offset="0" stop-color="#2483c5"/><stop offset="1" stop-color="#2483c5" stop-opacity="0"/></linearGradient><linearGradient id="linear-gradient-4" x1="444.557" y1="495.119" x2="955.726" y2="186.841" gradientUnits="userSpaceOnUse"><stop offset="0" stop-color="#1b75bb" stop-opacity="0.5"/><stop offset="0.937" stop-color="#2483c5" stop-opacity="0"/></linearGradient><linearGradient id="linear-gradient-5" x1="191.938" y1="214.668" x2="528.588" y2="14.856" gradientTransform="translate(0 292.246) scale(1 2.334)" gradientUnits="userSpaceOnUse"><stop offset="0" stop-color="#b6d7e1"/><stop offset="0.063" stop-color="#b0d3e0" stop-opacity="0.958"/><stop offset="0.167" stop-color="#9fcadd" stop-opacity="0.843"/><stop offset="0.301" stop-color="#84bad7" stop-opacity="0.656"/><stop offset="0.459" stop-color="#5ea4d0" stop-opacity="0.397"/><stop offset="0.635" stop-color="#2e89c7" stop-opacity="0.07"/><stop offset="0.671" stop-color="#2483c5" stop-opacity="0"/></linearGradient><linearGradient id="linear-gradient-6" x1="79.041" y1="360.155" x2="490.933" y2="360.155" gradientUnits="userSpaceOnUse"><stop offset="0" stop-color="#b6d7e1"/><stop offset="0.064" stop-color="#9ac7dc" stop-opacity="0.806"/><stop offset="0.137" stop-color="#7eb7d6" stop-opacity="0.618"/><stop offset="0.216" stop-color="#66a9d2" stop-opacity="0.452"/><stop offset="0.301" stop-color="#519dce" stop-opacity="0.311"/><stop offset="0.392" stop-color="#4194cb" stop-opacity="0.197"/><stop offset="0.493" stop-color="#348cc8" stop-opacity="0.109"/><stop offset="0.608" stop-color="#2b87c6" stop-opacity="0.047"/><stop offset="0.75" stop-color="#2684c5" stop-opacity="0.011"/><stop offset="1" stop-color="#2483c5" stop-opacity="0"/></linearGradient><linearGradient id="linear-gradient-7" x1="-99.961" y1="161.807" x2="421.985" y2="-135.804" gradientTransform="translate(0 50.508) scale(1 1.231)" gradientUnits="userSpaceOnUse"><stop offset="0" stop-color="#b6d7e1"/><stop offset="0.065" stop-color="#abd1df" stop-opacity="0.923"/><stop offset="0.196" stop-color="#8ec0d9" stop-opacity="0.723"/><stop offset="0.378" stop-color="#5ea5d0" stop-opacity="0.399"/><stop offset="0.584" stop-color="#2483c5" stop-opacity="0"/></linearGradient><linearGradient id="linear-gradient-8" x1="79.041" y1="461.44" x2="490.933" y2="461.44" xlink:href="#linear-gradient-6"/><linearGradient id="linear-gradient-9" x1="-4.087" y1="-135.042" x2="314.052" y2="426.764" gradientTransform="translate(0 200.714) scale(1 1.917)" gradientUnits="userSpaceOnUse"><stop offset="0.233" stop-color="#067392" stop-opacity="0.4"/><stop offset="0.361" stop-color="#0b769a" stop-opacity="0.337"/><stop offset="0.569" stop-color="#177cb0" stop-opacity="0.168"/><stop offset="0.737" stop-color="#2483c5" stop-opacity="0"/></linearGradient><linearGradient id="linear-gradient-10" x1="79.041" y1="484.615" x2="490.933" y2="484.615" xlink:href="#linear-gradient-6"/><linearGradient id="linear-gradient-11" x1="-62.708" y1="-254.993" x2="380.528" y2="527.725" xlink:href="#linear-gradient-9"/><linearGradient id="linear-gradient-12" x1="-78.473" y1="-246.066" x2="364.763" y2="536.653" xlink:href="#linear-gradient-9"/><linearGradient id="linear-gradient-13" x1="-51.66" y1="-261.249" x2="391.576" y2="521.469" xlink:href="#linear-gradient-9"/><linearGradient id="linear-gradient-14" x1="-58.488" y1="-239.828" x2="380.239" y2="534.929" xlink:href="#linear-gradient-9"/><linearGradient id="linear-gradient-15" x1="-94.224" y1="188.149" x2="365.003" y2="-73.701" xlink:href="#linear-gradient-7"/><linearGradient id="linear-gradient-16" x1="-88.777" y1="198.4" x2="558" y2="-170.389" xlink:href="#linear-gradient-7"/><linearGradient id="linear-gradient-17" x1="-124.41" y1="135.907" x2="522.366" y2="-232.882" xlink:href="#linear-gradient-7"/><linearGradient id="linear-gradient-18" x1="-2556.111" y1="3504.982" x2="-2118.817" y2="3504.982" gradientTransform="matrix(0.003, -0.751, 1, 0.004, -2745.563, -1596.706)" gradientUnits="userSpaceOnUse"><stop offset="0" stop-color="#2483c5"/><stop offset="0.715" stop-color="#2483c5" stop-opacity="0"/></linearGradient><linearGradient id="linear-gradient-19" x1="-2568.105" y1="3658.844" x2="-2101.503" y2="3377.444" gradientTransform="matrix(0.004, -0.949, 0.981, 0.004, -2736.107, -2114.603)" gradientUnits="userSpaceOnUse"><stop offset="0" stop-color="#1b75bb" stop-opacity="0.5"/><stop offset="0.579" stop-color="#2483c5" stop-opacity="0"/></linearGradient><clipPath id="clip-path"><rect x="277" y="83.5" width="259" height="254.5" fill="none"/></clipPath></defs><title>nowhome</title><polygon points="0 239.192 87.063 385.844 0 385.844 0 239.192" fill="url(#linear-gradient)"/><rect x="239.496" y="35.605" width="18.403" height="420.548" transform="translate(337.286 -92.44) rotate(60)" fill="url(#linear-gradient-2)"/><polygon points="815.65 323.93 815.65 500 593.02 500 815.65 323.93" fill="url(#linear-gradient-3)"/><polygon points="815.65 178.47 815.65 321.88 590.42 500 409.1 500 815.65 178.47" fill="url(#linear-gradient-4)"/><polygon points="620.64 252.31 642.03 303.06 393.01 500 307.46 500 620.64 252.31" fill="url(#linear-gradient-5)"/><polygon points="443.25 220.31 490.93 333.45 280.34 500 219.62 500 187.11 422.88 443.25 220.31" fill="url(#linear-gradient-6)"/><polygon points="375.79 0 278.21 77.17 135.65 189.92 68.02 29.47 105.28 0 375.79 0" fill="url(#linear-gradient-7)"/><polygon points="187.11 422.88 219.62 500 141.47 500 128.5 469.23 187.11 422.88" fill="url(#linear-gradient-8)"/><polygon points="100.61 217.64 187.11 422.88 128.5 469.23 42 263.99 56.41 252.59 100.61 217.64" fill="url(#linear-gradient-9)"/><polygon points="128.5 469.23 141.47 500 89.6 500 128.5 469.23" fill="url(#linear-gradient-10)"/><polygon points="68.02 29.47 135.65 189.92 100.61 217.63 50.59 98.97 78.15 77.17 41.4 77.17 50.59 98.97 6.39 133.92 1.07 121.29 1.07 82.42 68.02 29.47" fill="url(#linear-gradient-11)"/><polygon points="100.61 217.63 100.61 217.64 56.41 252.59 6.39 133.92 50.59 98.97 100.61 217.63" fill="url(#linear-gradient-12)"/><polygon points="78.15 77.17 50.59 98.97 41.4 77.17 78.15 77.17" fill="url(#linear-gradient-13)"/><polygon points="55.6 0 68.02 29.47 1.07 82.42 1.07 0 55.6 0" fill="url(#linear-gradient-14)"/><polygon points="6.39 133.92 56.41 252.59 42 263.99 1.07 166.88 1.07 138.13 6.39 133.92" fill="url(#linear-gradient-15)"/><polygon points="1.07 166.88 42 263.99 1.07 296.36 1.07 166.88" fill="url(#linear-gradient-16)"/><polygon points="1.07 121.29 6.39 133.92 1.07 138.13 1.07 121.29" fill="url(#linear-gradient-17)"/><polygon points="815.586 289.105 688.007 65.925 686.509 65.919 815.575 291.699 815.586 289.105" fill="none"/><polygon points="816.545 78.883 688.011 78.332 815.828 246.103 816.545 78.883" fill="url(#linear-gradient-18)"/><polygon points="817.133 214.22 690.486 -0.058 587.786 -0.499 816.395 386.291 817.133 214.22" fill="url(#linear-gradient-19)"/><path d="M200.454,349.351l-3.426,3.024q-1.806-2.513-3.676-2.511a2.239,2.239,0,0,0-1.489.487,1.421,1.421,0,0,0-.579,1.1,1.877,1.877,0,0,0,.414,1.156,31.287,31.287,0,0,0,3.393,3.124q2.647,2.212,3.211,2.792a9.672,9.672,0,0,1,1.994,2.718,6.793,6.793,0,0,1,.587,2.833,6.5,6.5,0,0,1-2.068,4.941,7.539,7.539,0,0,1-5.391,1.948,8.029,8.029,0,0,1-4.524-1.271,10.033,10.033,0,0,1-3.3-4l3.888-2.346q1.755,3.222,4.037,3.223a2.973,2.973,0,0,0,2-.7,2.061,2.061,0,0,0,.81-1.6,2.76,2.76,0,0,0-.612-1.652,17.634,17.634,0,0,0-2.7-2.527,27.229,27.229,0,0,1-5.13-5,6.346,6.346,0,0,1-1.159-3.511,5.744,5.744,0,0,1,1.927-4.337,6.686,6.686,0,0,1,4.757-1.809,7.49,7.49,0,0,1,3.465.843A12.621,12.621,0,0,1,200.454,349.351Z" fill="#0d255b" stroke="#fff" stroke-miterlimit="1" stroke-width="5.669"/><path d="M222.809,362.669h-14.49A4.821,4.821,0,0,0,210,365.717a5.26,5.26,0,0,0,3.478,1.132,6.012,6.012,0,0,0,4.345-1.769l3.8,1.785a8.952,8.952,0,0,1-3.4,2.982,10.637,10.637,0,0,1-4.708.967,9.312,9.312,0,0,1-6.891-2.668,9.079,9.079,0,0,1-2.66-6.683,9.385,9.385,0,0,1,2.652-6.832,8.906,8.906,0,0,1,6.65-2.719,9.239,9.239,0,0,1,6.907,2.719,9.823,9.823,0,0,1,2.66,7.179Zm-4.511-3.553a4.522,4.522,0,0,0-1.762-2.445,5.109,5.109,0,0,0-3.054-.941,5.392,5.392,0,0,0-3.31,1.057,5.9,5.9,0,0,0-1.655,2.329Z" fill="#0d255b" stroke="#fff" stroke-miterlimit="1" stroke-width="5.669"/><path d="M225.4,352.375h3.866v2.263a4.835,4.835,0,0,1,1.669-2.032,4.028,4.028,0,0,1,2.279-.694,4.226,4.226,0,0,1,1.835.463l-1.4,3.883a3.11,3.11,0,0,0-1.306-.4,2.065,2.065,0,0,0-1.76,1.288q-.717,1.289-.718,5.057l.017.875v7.27H225.4Z" fill="#0d255b" stroke="#fff" stroke-miterlimit="1" stroke-width="5.669"/><path d="M235.357,352.375h4.595l4.542,10.608,4.532-10.608H253.6l-7.65,17.977h-2.925Z" fill="#0d255b" stroke="#fff" stroke-miterlimit="1" stroke-width="5.669"/><path d="M257.993,344.973a2.758,2.758,0,0,1,2.034.859,2.854,2.854,0,0,1,.848,2.082,2.816,2.816,0,0,1-.84,2.057,2.726,2.726,0,0,1-2.009.851,2.764,2.764,0,0,1-2.052-.868,2.9,2.9,0,0,1-.849-2.106,2.875,2.875,0,0,1,2.868-2.875Zm-2.256,7.4h4.511v17.977h-4.511Z" fill="#0d255b" stroke="#fff" stroke-miterlimit="1" stroke-width="5.669"/><path d="M281.941,356.01l-3.755,2.065a6.367,6.367,0,0,0-2.092-1.536,6.281,6.281,0,0,0-2.424-.43,5.642,5.642,0,0,0-4.094,1.51,5.142,5.142,0,0,0-1.563,3.868,4.974,4.974,0,0,0,1.5,3.745,5.457,5.457,0,0,0,3.954,1.452,5.747,5.747,0,0,0,4.714-2.066l3.556,2.436a10.956,10.956,0,0,1-15.588.951,9.341,9.341,0,0,1,2.264-14.837,10.872,10.872,0,0,1,5.23-1.256,10.593,10.593,0,0,1,4.807,1.066A9.125,9.125,0,0,1,281.941,356.01Z" fill="#0d255b" stroke="#fff" stroke-miterlimit="1" stroke-width="5.669"/><path d="M287.765,344.973a2.758,2.758,0,0,1,2.034.859,2.855,2.855,0,0,1,.849,2.082,2.82,2.82,0,0,1-.84,2.057,2.728,2.728,0,0,1-2.01.851,2.765,2.765,0,0,1-2.052-.868,2.9,2.9,0,0,1-.848-2.106,2.875,2.875,0,0,1,2.867-2.875Zm-2.255,7.4h4.511v17.977H285.51Z" fill="#0d255b" stroke="#fff" stroke-miterlimit="1" stroke-width="5.669"/><path d="M302.561,351.912a9.543,9.543,0,0,1,4.783,1.272,9.333,9.333,0,0,1,4.75,8.163,9.44,9.44,0,0,1-1.264,4.759,9.131,9.131,0,0,1-3.445,3.461,9.51,9.51,0,0,1-4.808,1.247,8.963,8.963,0,0,1-6.6-2.751,9.468,9.468,0,0,1,6.585-16.151Zm.073,4.246a4.643,4.643,0,0,0-3.5,1.463,5.194,5.194,0,0,0-1.4,3.742,5.292,5.292,0,0,0,1.382,3.8,4.619,4.619,0,0,0,3.5,1.454,4.678,4.678,0,0,0,3.526-1.471,5.8,5.8,0,0,0,.024-7.542A4.671,4.671,0,0,0,302.634,356.158Z" fill="#0d255b" stroke="#fff" stroke-miterlimit="1" stroke-width="5.669"/><path d="M325.758,346.046h5.481q5.3,0,7.874,1.315a10.255,10.255,0,0,1,4.243,4.271,14.973,14.973,0,0,1,.734,12.069,10.7,10.7,0,0,1-2.575,3.908,9.093,9.093,0,0,1-3.558,2.148,25.347,25.347,0,0,1-6.635.595h-5.564Zm4.593,4.463v15.333H332.5a10.746,10.746,0,0,0,4.6-.729,5.514,5.514,0,0,0,2.339-2.448,8.978,8.978,0,0,0,.908-4.234,8.05,8.05,0,0,0-2.164-6q-1.95-1.918-6.262-1.918Z" fill="#0d255b" stroke="#fff" stroke-miterlimit="1" stroke-width="5.669"/><path d="M357.383,351.912a9.543,9.543,0,0,1,4.783,1.272,9.333,9.333,0,0,1,4.75,8.163,9.431,9.431,0,0,1-1.265,4.759,9.122,9.122,0,0,1-3.444,3.461,9.51,9.51,0,0,1-4.808,1.247,8.963,8.963,0,0,1-6.6-2.751,9.53,9.53,0,0,1,.355-13.7A9.028,9.028,0,0,1,357.383,351.912Zm.073,4.246a4.642,4.642,0,0,0-3.5,1.463,5.194,5.194,0,0,0-1.4,3.742,5.292,5.292,0,0,0,1.382,3.8,4.619,4.619,0,0,0,3.5,1.454,4.676,4.676,0,0,0,3.525-1.471,5.8,5.8,0,0,0,.025-7.542A4.671,4.671,0,0,0,357.456,356.158Z" fill="#0d255b" stroke="#fff" stroke-miterlimit="1" stroke-width="5.669"/><path d="M370.568,352.375h4.511v2.065a7.682,7.682,0,0,1,2.57-1.9,7.522,7.522,0,0,1,3.084-.628,5.738,5.738,0,0,1,3.042.827,5.968,5.968,0,0,1,2.183,2.412,7.116,7.116,0,0,1,6.052-3.239,6.318,6.318,0,0,1,3.372.893,5.158,5.158,0,0,1,2.092,2.33,12.452,12.452,0,0,1,.636,4.675v10.542h-4.543v-9.121q0-3.055-.76-4.139a2.6,2.6,0,0,0-2.28-1.082,3.464,3.464,0,0,0-2.074.661,3.908,3.908,0,0,0-1.363,1.826,11.357,11.357,0,0,0-.445,3.742v8.113H382.1v-8.708a12.241,12.241,0,0,0-.356-3.5,3.163,3.163,0,0,0-1.068-1.61,2.805,2.805,0,0,0-1.722-.529,3.391,3.391,0,0,0-2.046.67,3.985,3.985,0,0,0-1.374,1.875,11.579,11.579,0,0,0-.455,3.8v8h-4.511Z" fill="#0d255b" stroke="#fff" stroke-miterlimit="1" stroke-width="5.669"/><path d="M420.417,362.669H405.926a4.822,4.822,0,0,0,1.678,3.048,5.257,5.257,0,0,0,3.477,1.132,6.014,6.014,0,0,0,4.346-1.769l3.8,1.785a8.952,8.952,0,0,1-3.4,2.982,10.634,10.634,0,0,1-4.708.967,9.312,9.312,0,0,1-6.891-2.668,9.083,9.083,0,0,1-2.66-6.683,9.389,9.389,0,0,1,2.652-6.832,8.908,8.908,0,0,1,6.651-2.719,9.237,9.237,0,0,1,6.906,2.719,9.819,9.819,0,0,1,2.661,7.179Zm-4.512-3.553a4.517,4.517,0,0,0-1.762-2.445,5.109,5.109,0,0,0-3.054-.941,5.387,5.387,0,0,0-3.309,1.057,5.91,5.91,0,0,0-1.656,2.329Zm-4.212-16.506h5.336l-6.046,6.477h-3.239Z" fill="#0d255b" stroke="#fff" stroke-miterlimit="1" stroke-width="5.669"/><path d="M435.072,354.887l-2.793,2.791a4.723,4.723,0,0,0-3.09-1.684,1.944,1.944,0,0,0-1.189.322.967.967,0,0,0-.43.8.983.983,0,0,0,.273.668,5.045,5.045,0,0,0,1.346.835l1.653.826a9.742,9.742,0,0,1,3.586,2.627,5.474,5.474,0,0,1-.786,7.138,6.737,6.737,0,0,1-4.717,1.6,7.5,7.5,0,0,1-6.278-3.073l2.775-3.023a6.4,6.4,0,0,0,1.859,1.494,4.1,4.1,0,0,0,1.891.571,2.253,2.253,0,0,0,1.438-.43,1.242,1.242,0,0,0,.545-.991q0-1.041-1.966-2.032l-1.52-.761q-4.362-2.2-4.362-5.5a4.776,4.776,0,0,1,1.644-3.644,5.974,5.974,0,0,1,4.2-1.512,7.3,7.3,0,0,1,5.916,2.975Z" fill="#0d255b" stroke="#fff" stroke-miterlimit="1" stroke-width="5.669"/><path d="M439.5,345.75h4.511v6.625h2.676v3.883h-2.676v14.094H439.5V356.258h-2.314v-3.883H439.5Z" fill="#0d255b" stroke="#fff" stroke-miterlimit="1" stroke-width="5.669"/><path d="M450.86,344.973a2.756,2.756,0,0,1,2.033.859,2.855,2.855,0,0,1,.849,2.082,2.816,2.816,0,0,1-.84,2.057,2.726,2.726,0,0,1-2.009.851,2.764,2.764,0,0,1-2.052-.868,2.9,2.9,0,0,1-.849-2.106,2.875,2.875,0,0,1,2.868-2.875Zm-2.256,7.4h4.511v17.977H448.6Z" fill="#0d255b" stroke="#fff" stroke-miterlimit="1" stroke-width="5.669"/><path d="M474.809,356.01l-3.755,2.065a6.367,6.367,0,0,0-2.092-1.536,6.281,6.281,0,0,0-2.424-.43,5.646,5.646,0,0,0-4.1,1.51,5.145,5.145,0,0,0-1.562,3.868,4.974,4.974,0,0,0,1.505,3.745,5.457,5.457,0,0,0,3.954,1.452,5.748,5.748,0,0,0,4.714-2.066l3.556,2.436a10.956,10.956,0,0,1-15.588.951,9.341,9.341,0,0,1,2.264-14.837,10.871,10.871,0,0,1,5.229-1.256,10.6,10.6,0,0,1,4.808,1.066A9.125,9.125,0,0,1,474.809,356.01Z" fill="#0d255b" stroke="#fff" stroke-miterlimit="1" stroke-width="5.669"/><path d="M487.317,351.912a9.543,9.543,0,0,1,4.783,1.272,9.333,9.333,0,0,1,4.75,8.163,9.44,9.44,0,0,1-1.264,4.759,9.131,9.131,0,0,1-3.445,3.461,9.51,9.51,0,0,1-4.808,1.247,8.963,8.963,0,0,1-6.6-2.751,9.468,9.468,0,0,1,6.585-16.151Zm.073,4.246a4.643,4.643,0,0,0-3.5,1.463,5.194,5.194,0,0,0-1.4,3.742,5.292,5.292,0,0,0,1.382,3.8,4.619,4.619,0,0,0,3.5,1.454,4.68,4.68,0,0,0,3.526-1.471,5.8,5.8,0,0,0,.024-7.542A4.671,4.671,0,0,0,487.39,356.158Z" fill="#0d255b" stroke="#fff" stroke-miterlimit="1" stroke-width="5.669"/><path d="M510.167,346.046h4.593v24.306h-4.593Z" fill="#0d255b" stroke="#fff" stroke-miterlimit="1" stroke-width="5.669"/><path d="M519.47,352.375h4.51v1.842a10.809,10.809,0,0,1,2.78-1.8,6.707,6.707,0,0,1,2.55-.507,6.172,6.172,0,0,1,4.536,1.867,6.41,6.41,0,0,1,1.567,4.692v11.881h-4.46v-7.873a19.938,19.938,0,0,0-.289-4.274,2.919,2.919,0,0,0-1.006-1.609,2.815,2.815,0,0,0-1.771-.553,3.317,3.317,0,0,0-2.349.917,4.883,4.883,0,0,0-1.36,2.533,20.4,20.4,0,0,0-.2,3.646v7.213h-4.51Z" fill="#0d255b" stroke="#fff" stroke-miterlimit="1" stroke-width="5.669"/><path d="M540.321,345.75h4.511v6.625h2.677v3.883h-2.677v14.094h-4.511V356.258h-2.313v-3.883h2.313Z" fill="#0d255b" stroke="#fff" stroke-miterlimit="1" stroke-width="5.669"/><path d="M567.931,362.669H553.44a4.827,4.827,0,0,0,1.678,3.048,5.257,5.257,0,0,0,3.477,1.132,6.014,6.014,0,0,0,4.346-1.769l3.8,1.785a8.952,8.952,0,0,1-3.4,2.982,10.631,10.631,0,0,1-4.708.967,9.309,9.309,0,0,1-6.89-2.668,9.08,9.08,0,0,1-2.661-6.683,9.389,9.389,0,0,1,2.652-6.832,8.91,8.91,0,0,1,6.651-2.719,9.237,9.237,0,0,1,6.906,2.719,9.819,9.819,0,0,1,2.661,7.179Zm-4.511-3.553a4.527,4.527,0,0,0-1.762-2.445,5.113,5.113,0,0,0-3.054-.941,5.39,5.39,0,0,0-3.31,1.057,5.91,5.91,0,0,0-1.656,2.329Z" fill="#0d255b" stroke="#fff" stroke-miterlimit="1" stroke-width="5.669"/><path d="M584.867,352.375h4.494v15.4q0,4.56-1.835,6.708-2.46,2.907-7.418,2.908a12.983,12.983,0,0,1-4.444-.661,7.978,7.978,0,0,1-3.04-1.941,7.9,7.9,0,0,1-1.834-3.115h4.972a4.1,4.1,0,0,0,1.7,1.148,7.017,7.017,0,0,0,2.461.388,6.514,6.514,0,0,0,2.925-.56,3.4,3.4,0,0,0,1.562-1.454,7.368,7.368,0,0,0,.454-3.074,7.467,7.467,0,0,1-2.5,1.71,7.921,7.921,0,0,1-2.957.521,8.127,8.127,0,0,1-6.113-2.611,10.131,10.131,0,0,1,.148-13.482,7.89,7.89,0,0,1,5.718-2.347,7.59,7.59,0,0,1,2.933.571,9.29,9.29,0,0,1,2.767,1.875Zm-4.677,3.751a4.7,4.7,0,0,0-3.518,1.429,4.948,4.948,0,0,0-1.388,3.594,5.015,5.015,0,0,0,1.421,3.684,4.811,4.811,0,0,0,3.569,1.437,4.614,4.614,0,0,0,3.461-1.4,5.066,5.066,0,0,0,1.363-3.685,5.007,5.007,0,0,0-1.371-3.651A4.727,4.727,0,0,0,580.19,356.126Z" fill="#0d255b" stroke="#fff" stroke-miterlimit="1" stroke-width="5.669"/><path d="M592.864,352.375h3.866v2.263a4.835,4.835,0,0,1,1.669-2.032,4.028,4.028,0,0,1,2.279-.694,4.226,4.226,0,0,1,1.835.463l-1.4,3.883a3.11,3.11,0,0,0-1.306-.4,2.065,2.065,0,0,0-1.76,1.288q-.717,1.289-.718,5.057l.017.875v7.27h-4.478Z" fill="#0d255b" stroke="#fff" stroke-miterlimit="1" stroke-width="5.669"/><path d="M618.011,352.375h4.51v17.977h-4.51v-1.9a8.837,8.837,0,0,1-2.649,1.81,7.416,7.416,0,0,1-2.88.553,8,8,0,0,1-6.024-2.7,9.426,9.426,0,0,1-2.541-6.717,9.661,9.661,0,0,1,2.459-6.824,7.836,7.836,0,0,1,5.974-2.66,7.608,7.608,0,0,1,3.037.611,8.32,8.32,0,0,1,2.624,1.835Zm-4.742,3.7a4.558,4.558,0,0,0-3.474,1.479,5.331,5.331,0,0,0-1.384,3.792,5.387,5.387,0,0,0,1.408,3.834,4.562,4.562,0,0,0,3.466,1.5,4.647,4.647,0,0,0,3.524-1.479,5.408,5.408,0,0,0,1.4-3.875,5.252,5.252,0,0,0-1.4-3.8A4.706,4.706,0,0,0,613.269,356.076Z" fill="#0d255b" stroke="#fff" stroke-miterlimit="1" stroke-width="5.669"/><path d="M626.586,345.436H631.1v24.916h-4.511Z" fill="#0d255b" stroke="#fff" stroke-miterlimit="1" stroke-width="5.669"/><g clip-path="url(#clip-path)"><image width="1476" height="1476" transform="translate(212.666 19.166) scale(0.263)" xlink:href="../../../../../../Google Drive/MI PROYECTO WEB MV/1 Home/Proyectos recientes/Nowhome-logo.png"/></g><path d="M200.605,349.351l-3.426,3.024q-1.8-2.513-3.675-2.511a2.24,2.24,0,0,0-1.49.487,1.422,1.422,0,0,0-.578,1.1,1.876,1.876,0,0,0,.413,1.156,31.287,31.287,0,0,0,3.393,3.124q2.648,2.212,3.211,2.792a9.672,9.672,0,0,1,1.994,2.718,6.794,6.794,0,0,1,.588,2.833,6.5,6.5,0,0,1-2.068,4.941,7.543,7.543,0,0,1-5.392,1.948,8.029,8.029,0,0,1-4.524-1.271,10.041,10.041,0,0,1-3.3-4l3.888-2.346q1.755,3.222,4.037,3.223a2.973,2.973,0,0,0,2-.7,2.058,2.058,0,0,0,.81-1.6,2.765,2.765,0,0,0-.611-1.652,17.685,17.685,0,0,0-2.7-2.527,27.243,27.243,0,0,1-5.131-5,6.346,6.346,0,0,1-1.159-3.511,5.742,5.742,0,0,1,1.928-4.337,6.682,6.682,0,0,1,4.756-1.809,7.49,7.49,0,0,1,3.465.843A12.621,12.621,0,0,1,200.605,349.351Z" fill="#0d255b"/><path d="M222.961,362.669H208.47a4.822,4.822,0,0,0,1.678,3.048,5.257,5.257,0,0,0,3.477,1.132,6.014,6.014,0,0,0,4.346-1.769l3.8,1.785a8.952,8.952,0,0,1-3.4,2.982,10.637,10.637,0,0,1-4.708.967,9.312,9.312,0,0,1-6.891-2.668,9.083,9.083,0,0,1-2.66-6.683,9.389,9.389,0,0,1,2.652-6.832,8.908,8.908,0,0,1,6.651-2.719,9.237,9.237,0,0,1,6.906,2.719,9.819,9.819,0,0,1,2.661,7.179Zm-4.512-3.553a4.517,4.517,0,0,0-1.762-2.445,5.109,5.109,0,0,0-3.054-.941,5.392,5.392,0,0,0-3.31,1.057,5.919,5.919,0,0,0-1.655,2.329Z" fill="#0d255b"/><path d="M225.554,352.375h3.866v2.263a4.837,4.837,0,0,1,1.67-2.032,4.028,4.028,0,0,1,2.279-.694,4.222,4.222,0,0,1,1.834.463l-1.4,3.883a3.1,3.1,0,0,0-1.305-.4,2.063,2.063,0,0,0-1.76,1.288q-.719,1.289-.719,5.057l.017.875v7.27h-4.478Z" fill="#0d255b"/><path d="M235.508,352.375H240.1l4.543,10.608,4.531-10.608h4.572L246.1,370.352h-2.925Z" fill="#0d255b"/><path d="M258.144,344.973a2.758,2.758,0,0,1,2.034.859,2.854,2.854,0,0,1,.848,2.082,2.816,2.816,0,0,1-.84,2.057,2.724,2.724,0,0,1-2.009.851,2.764,2.764,0,0,1-2.052-.868,2.9,2.9,0,0,1-.849-2.106,2.876,2.876,0,0,1,2.868-2.875Zm-2.256,7.4H260.4v17.977h-4.512Z" fill="#0d255b"/><path d="M282.092,356.01l-3.754,2.065a6.38,6.38,0,0,0-2.093-1.536,6.281,6.281,0,0,0-2.424-.43,5.643,5.643,0,0,0-4.094,1.51,5.142,5.142,0,0,0-1.563,3.868,4.974,4.974,0,0,0,1.5,3.745,5.457,5.457,0,0,0,3.954,1.452,5.75,5.75,0,0,0,4.715-2.066l3.556,2.436a10.958,10.958,0,0,1-15.589.951,9.343,9.343,0,0,1,2.264-14.837,10.875,10.875,0,0,1,5.23-1.256,10.593,10.593,0,0,1,4.807,1.066A9.125,9.125,0,0,1,282.092,356.01Z" fill="#0d255b"/><path d="M287.916,344.973a2.758,2.758,0,0,1,2.034.859,2.855,2.855,0,0,1,.849,2.082,2.816,2.816,0,0,1-.84,2.057,2.726,2.726,0,0,1-2.009.851,2.764,2.764,0,0,1-2.052-.868,2.9,2.9,0,0,1-.849-2.106,2.875,2.875,0,0,1,2.867-2.875Zm-2.255,7.4h4.511v17.977h-4.511Z" fill="#0d255b"/><path d="M302.712,351.912a9.54,9.54,0,0,1,4.783,1.272,9.333,9.333,0,0,1,4.75,8.163,9.44,9.44,0,0,1-1.264,4.759,9.122,9.122,0,0,1-3.444,3.461,9.511,9.511,0,0,1-4.809,1.247,8.961,8.961,0,0,1-6.6-2.751,9.528,9.528,0,0,1,.355-13.7A9.025,9.025,0,0,1,302.712,351.912Zm.074,4.246a4.645,4.645,0,0,0-3.5,1.463,5.193,5.193,0,0,0-1.4,3.742,5.291,5.291,0,0,0,1.381,3.8,4.619,4.619,0,0,0,3.5,1.454,4.677,4.677,0,0,0,3.525-1.471,5.8,5.8,0,0,0,.024-7.542A4.67,4.67,0,0,0,302.786,356.158Z" fill="#0d255b"/><path d="M325.91,346.046h5.48q5.3,0,7.874,1.315a10.255,10.255,0,0,1,4.243,4.271,14.973,14.973,0,0,1,.734,12.069,10.686,10.686,0,0,1-2.575,3.908,9.089,9.089,0,0,1-3.557,2.148,25.356,25.356,0,0,1-6.636.595H325.91Zm4.592,4.463v15.333h2.149a10.751,10.751,0,0,0,4.6-.729,5.512,5.512,0,0,0,2.338-2.448,8.978,8.978,0,0,0,.909-4.234,8.054,8.054,0,0,0-2.164-6q-1.951-1.918-6.263-1.918Z" fill="#0d255b"/><path d="M357.534,351.912a9.543,9.543,0,0,1,4.783,1.272,9.333,9.333,0,0,1,4.75,8.163,9.44,9.44,0,0,1-1.264,4.759,9.131,9.131,0,0,1-3.445,3.461,9.51,9.51,0,0,1-4.808,1.247,8.963,8.963,0,0,1-6.6-2.751,9.53,9.53,0,0,1,.355-13.7A9.029,9.029,0,0,1,357.534,351.912Zm.073,4.246a4.645,4.645,0,0,0-3.5,1.463,5.194,5.194,0,0,0-1.4,3.742,5.292,5.292,0,0,0,1.382,3.8,4.619,4.619,0,0,0,3.5,1.454,4.678,4.678,0,0,0,3.526-1.471,5.8,5.8,0,0,0,.024-7.542A4.671,4.671,0,0,0,357.607,356.158Z" fill="#0d255b"/><path d="M370.719,352.375h4.511v2.065a7.7,7.7,0,0,1,2.57-1.9,7.522,7.522,0,0,1,3.084-.628,5.736,5.736,0,0,1,3.042.827,5.968,5.968,0,0,1,2.183,2.412,7.276,7.276,0,0,1,2.638-2.412,7.2,7.2,0,0,1,3.414-.827,6.322,6.322,0,0,1,3.373.893,5.15,5.15,0,0,1,2.091,2.33,12.452,12.452,0,0,1,.636,4.675v10.542h-4.543v-9.121q0-3.055-.76-4.139a2.6,2.6,0,0,0-2.28-1.082,3.461,3.461,0,0,0-2.073.661,3.9,3.9,0,0,0-1.364,1.826,11.357,11.357,0,0,0-.445,3.742v8.113h-4.544v-8.708a12.278,12.278,0,0,0-.356-3.5,3.17,3.17,0,0,0-1.069-1.61,2.8,2.8,0,0,0-1.722-.529,3.391,3.391,0,0,0-2.046.67,3.985,3.985,0,0,0-1.374,1.875,11.579,11.579,0,0,0-.455,3.8v8h-4.511Z" fill="#0d255b"/><path d="M420.568,362.669H406.077a4.827,4.827,0,0,0,1.678,3.048,5.257,5.257,0,0,0,3.477,1.132,6.014,6.014,0,0,0,4.346-1.769l3.8,1.785a8.949,8.949,0,0,1-3.4,2.982,10.638,10.638,0,0,1-4.709.967,9.311,9.311,0,0,1-6.89-2.668,9.08,9.08,0,0,1-2.661-6.683,9.389,9.389,0,0,1,2.652-6.832,8.91,8.91,0,0,1,6.651-2.719,9.237,9.237,0,0,1,6.906,2.719,9.819,9.819,0,0,1,2.661,7.179Zm-4.511-3.553a4.527,4.527,0,0,0-1.762-2.445,5.113,5.113,0,0,0-3.054-.941,5.39,5.39,0,0,0-3.31,1.057,5.91,5.91,0,0,0-1.656,2.329Zm-4.213-16.506h5.336l-6.046,6.477H407.9Z" fill="#0d255b"/><path d="M435.223,354.887l-2.793,2.791a4.721,4.721,0,0,0-3.089-1.684,1.945,1.945,0,0,0-1.19.322.966.966,0,0,0-.429.8.981.981,0,0,0,.272.668,5.056,5.056,0,0,0,1.347.835l1.652.826a9.724,9.724,0,0,1,3.586,2.627,5.474,5.474,0,0,1-.786,7.138,6.735,6.735,0,0,1-4.717,1.6,7.5,7.5,0,0,1-6.278-3.073l2.776-3.023a6.389,6.389,0,0,0,1.859,1.494,4.1,4.1,0,0,0,1.891.571,2.255,2.255,0,0,0,1.438-.43,1.243,1.243,0,0,0,.544-.991q0-1.041-1.965-2.032l-1.52-.761q-4.362-2.2-4.362-5.5a4.778,4.778,0,0,1,1.643-3.644,5.975,5.975,0,0,1,4.206-1.512,7.3,7.3,0,0,1,5.915,2.975Z" fill="#0d255b"/><path d="M439.651,345.75h4.511v6.625h2.677v3.883h-2.677v14.094h-4.511V356.258h-2.313v-3.883h2.313Z" fill="#0d255b"/><path d="M451.011,344.973a2.758,2.758,0,0,1,2.034.859,2.854,2.854,0,0,1,.848,2.082,2.816,2.816,0,0,1-.84,2.057,2.724,2.724,0,0,1-2.009.851,2.764,2.764,0,0,1-2.052-.868,2.9,2.9,0,0,1-.849-2.106,2.875,2.875,0,0,1,2.868-2.875Zm-2.256,7.4h4.511v17.977h-4.511Z" fill="#0d255b"/><path d="M474.96,356.01l-3.754,2.065a6.38,6.38,0,0,0-2.093-1.536,6.281,6.281,0,0,0-2.424-.43,5.643,5.643,0,0,0-4.094,1.51,5.142,5.142,0,0,0-1.563,3.868,4.974,4.974,0,0,0,1.5,3.745,5.457,5.457,0,0,0,3.954,1.452,5.75,5.75,0,0,0,4.715-2.066l3.556,2.436a10.958,10.958,0,0,1-15.589.951,9.343,9.343,0,0,1,2.264-14.837,10.875,10.875,0,0,1,5.23-1.256,10.593,10.593,0,0,1,4.807,1.066A9.125,9.125,0,0,1,474.96,356.01Z" fill="#0d255b"/><path d="M487.468,351.912a9.54,9.54,0,0,1,4.783,1.272,9.333,9.333,0,0,1,4.75,8.163,9.44,9.44,0,0,1-1.264,4.759,9.122,9.122,0,0,1-3.444,3.461,9.514,9.514,0,0,1-4.809,1.247,8.961,8.961,0,0,1-6.6-2.751,9.528,9.528,0,0,1,.355-13.7A9.025,9.025,0,0,1,487.468,351.912Zm.074,4.246a4.645,4.645,0,0,0-3.5,1.463,5.193,5.193,0,0,0-1.4,3.742,5.291,5.291,0,0,0,1.381,3.8,4.619,4.619,0,0,0,3.5,1.454,4.677,4.677,0,0,0,3.525-1.471,5.8,5.8,0,0,0,.024-7.542A4.67,4.67,0,0,0,487.542,356.158Z" fill="#0d255b"/><path d="M510.318,346.046h4.593v24.306h-4.593Z" fill="#0d255b"/><path d="M519.621,352.375h4.51v1.842a10.826,10.826,0,0,1,2.78-1.8,6.707,6.707,0,0,1,2.55-.507A6.175,6.175,0,0,1,534,353.779a6.415,6.415,0,0,1,1.567,4.692v11.881h-4.46v-7.873a19.938,19.938,0,0,0-.289-4.274,2.926,2.926,0,0,0-1.007-1.609,2.815,2.815,0,0,0-1.771-.553,3.317,3.317,0,0,0-2.349.917,4.883,4.883,0,0,0-1.36,2.533,20.4,20.4,0,0,0-.2,3.646v7.213h-4.51Z" fill="#0d255b"/><path d="M540.472,345.75h4.512v6.625h2.676v3.883h-2.676v14.094h-4.512V356.258h-2.313v-3.883h2.313Z" fill="#0d255b"/><path d="M568.082,362.669H553.591a4.827,4.827,0,0,0,1.678,3.048,5.257,5.257,0,0,0,3.477,1.132,6.012,6.012,0,0,0,4.346-1.769l3.8,1.785a8.942,8.942,0,0,1-3.4,2.982,10.638,10.638,0,0,1-4.709.967,9.311,9.311,0,0,1-6.89-2.668,9.08,9.08,0,0,1-2.661-6.683,9.389,9.389,0,0,1,2.652-6.832,8.91,8.91,0,0,1,6.651-2.719,9.235,9.235,0,0,1,6.906,2.719,9.819,9.819,0,0,1,2.661,7.179Zm-4.511-3.553a4.527,4.527,0,0,0-1.762-2.445,5.113,5.113,0,0,0-3.054-.941,5.392,5.392,0,0,0-3.31,1.057,5.9,5.9,0,0,0-1.655,2.329Z" fill="#0d255b"/><path d="M585.018,352.375h4.494v15.4q0,4.56-1.834,6.708-2.462,2.907-7.418,2.908a12.979,12.979,0,0,1-4.444-.661,7.982,7.982,0,0,1-3.041-1.941,7.9,7.9,0,0,1-1.834-3.115h4.973a4.091,4.091,0,0,0,1.7,1.148,7.017,7.017,0,0,0,2.461.388,6.511,6.511,0,0,0,2.925-.56,3.4,3.4,0,0,0,1.562-1.454,7.368,7.368,0,0,0,.454-3.074,7.464,7.464,0,0,1-2.5,1.71,7.929,7.929,0,0,1-2.957.521,8.127,8.127,0,0,1-6.114-2.611,10.129,10.129,0,0,1,.149-13.482,7.886,7.886,0,0,1,5.717-2.347,7.59,7.59,0,0,1,2.933.571,9.278,9.278,0,0,1,2.767,1.875Zm-4.676,3.751a4.7,4.7,0,0,0-3.519,1.429,4.953,4.953,0,0,0-1.388,3.594,5.015,5.015,0,0,0,1.421,3.684,4.813,4.813,0,0,0,3.569,1.437,4.614,4.614,0,0,0,3.461-1.4,5.066,5.066,0,0,0,1.363-3.685,5.011,5.011,0,0,0-1.37-3.651A4.73,4.73,0,0,0,580.342,356.126Z" fill="#0d255b"/><path d="M593.015,352.375h3.866v2.263a4.837,4.837,0,0,1,1.67-2.032,4.028,4.028,0,0,1,2.279-.694,4.222,4.222,0,0,1,1.834.463l-1.4,3.883a3.1,3.1,0,0,0-1.3-.4,2.063,2.063,0,0,0-1.76,1.288q-.719,1.289-.719,5.057l.017.875v7.27h-4.478Z" fill="#0d255b"/><path d="M618.162,352.375h4.51v17.977h-4.51v-1.9a8.837,8.837,0,0,1-2.649,1.81,7.412,7.412,0,0,1-2.88.553,8,8,0,0,1-6.024-2.7,9.43,9.43,0,0,1-2.541-6.717,9.661,9.661,0,0,1,2.459-6.824,7.837,7.837,0,0,1,5.974-2.66,7.6,7.6,0,0,1,3.037.611,8.308,8.308,0,0,1,2.624,1.835Zm-4.742,3.7a4.559,4.559,0,0,0-3.474,1.479,5.331,5.331,0,0,0-1.384,3.792,5.387,5.387,0,0,0,1.408,3.834,4.562,4.562,0,0,0,3.466,1.5,4.647,4.647,0,0,0,3.524-1.479,5.4,5.4,0,0,0,1.4-3.875,5.248,5.248,0,0,0-1.4-3.8A4.706,4.706,0,0,0,613.42,356.076Z" fill="#0d255b"/><path d="M626.737,345.436h4.511v24.916h-4.511Z" fill="#0d255b"/></svg>