<svg id="Layer_1" data-name="Layer 1" xmlns="http://www.w3.org/2000/svg" viewBox="0 0 817 500"><title>sweetstories</title><path d="M334.293,169.514l.006,0a11.028,11.028,0,0,0,5.108,1.251,11.27,11.27,0,0,0,5.822-1.626,11.14,11.14,0,0,0,2.143-1.635,8.2,8.2,0,0,1,11.6,0l1.351,1.351a12.257,12.257,0,0,0,17.336,0,12.259,12.259,0,0,1,17.336,0,19.093,19.093,0,0,0,27,0,12.259,12.259,0,0,1,17.336,0,12.256,12.256,0,0,0,17.335,0l1.352-1.351a8.2,8.2,0,0,1,11.6,0,11.1,11.1,0,0,0,2.151,1.639,11.268,11.268,0,0,0,5.813,1.622,11.029,11.029,0,0,0,5.109-1.251l.006,0a14.959,14.959,0,0,0,2.308-25.052c-15.973-12.516-44.268-26.508-76.511-26.508s-60.538,13.992-76.51,26.508a14.969,14.969,0,0,0,2.308,25.052Zm102.768-36c1.718-1.718,9.026,2.806,10.744,4.524a4.4,4.4,0,1,1-6.22,6.22C439.867,142.538,435.344,135.23,437.061,133.512Zm-28.561.974c2.429,0,4.4,8.366,4.4,10.8a4.4,4.4,0,0,1-8.8,0C404.1,142.852,406.071,134.486,408.5,134.486Zm-39.305,3.55c1.718-1.718,9.026-6.242,10.744-4.524s-2.806,9.026-4.524,10.744a4.4,4.4,0,1,1-6.22-6.22Z" fill="#e77e80"/><path d="M505.276,175.688h-7.487a29.416,29.416,0,0,1-8.448,6.595,25.542,25.542,0,0,1-25-.808l-.162-.1a26.667,26.667,0,0,1-33.5-.93,33.493,33.493,0,0,1-44.363,0,26.667,26.667,0,0,1-33.5.93l-.143.086a25.541,25.541,0,0,1-25.025.817,29.345,29.345,0,0,1-8.439-6.592h-7.482a6.9,6.9,0,0,0-6.9,6.9v65.989a6.9,6.9,0,0,0,6.9,6.9H505.276a6.9,6.9,0,0,0,6.9-6.9V182.59A6.9,6.9,0,0,0,505.276,175.688Z" fill="#7b2900"/><path d="M348.56,225.2c0-3.324-3.008-4.275-6.7-5.277-5.225-1.425-10.081-3.536-10.081-10.292,0-6.439,4.961-10.344,12.244-10.344a23.029,23.029,0,0,1,9.923,2.164v7.916l-5.384.37v-3.061c0-1-.158-1.425-1.108-1.742a12.461,12.461,0,0,0-3.431-.422c-3.113,0-5.541,1.267-5.541,4.539s3.061,4.169,7.019,5.383c4.8,1.531,9.87,3.695,9.87,10.5,0,6.967-5.489,10.766-12.772,10.766a24.032,24.032,0,0,1-10.661-2.164V225.2l5.383-.369v3.22c0,1,.159,1.425,1.108,1.742a13.358,13.358,0,0,0,3.8.474C345.71,230.27,348.56,229.162,348.56,225.2Z" fill="#fff"/><path d="M367.56,202.879v5.594h7.02l-.528,4.434H367.56v13.88c0,3.219,1.267,4.169,3.43,4.169a7.049,7.049,0,0,0,3.59-1.108l1.583,4.064a12.53,12.53,0,0,1-6.7,1.847c-8.234,0-8.181-5.067-8.181-8.761V212.907h-3.747l.528-3.853c3.694-.317,4.96-3.167,6.068-6.175Z" fill="#fff"/><path d="M389.675,207.681c3.9,0,11.769,1.214,11.769,13.353,0,10.133-5.647,14.778-12.613,14.778-7.073,0-11.718-4.539-11.718-14.092C377.113,210.742,384.238,207.681,389.675,207.681Zm5.33,14.2c0-5.911-1.425-9.553-5.647-9.553-4.169,0-5.858,3.589-5.858,8.656,0,4.907.686,10.185,5.753,10.185C393.369,231.167,395.005,227.368,395.005,221.879Z" fill="#fff"/><path d="M408.254,214.49c0-1.161-.317-1.531-1.32-1.583l-2.217-.159v-4.275h8.92v3.958a8.255,8.255,0,0,1,7.494-4.75,11.084,11.084,0,0,1,5.067,1.162v7.864l-4.908.369v-2.428c0-.633-.106-1.108-.528-1.319a3.131,3.131,0,0,0-1.425-.264c-2.85,0-4.8,2.269-4.8,5.331V230.64l4.591.211v4.169H404.981v-4.011l1.742-.158c1-.106,1.531-.423,1.531-1.742Z" fill="#fff"/><path d="M438.916,230.64l3.008.158v4.222H429.363v-4.011l1.742-.158c.95-.106,1.531-.423,1.531-1.689V214.49c0-1.161-.317-1.531-1.321-1.531l-1.846-.1v-4.381h9.447Zm-3.694-33.461a3.9,3.9,0,0,1,4.01,3.958,3.83,3.83,0,0,1-4.063,3.853,3.756,3.756,0,0,1-4.011-3.853A3.852,3.852,0,0,1,435.222,197.179Z" fill="#fff"/><path d="M466.835,215.017c0,8.128-8.814,9.5-15.042,9.553.211,3.431,2,6.228,6.492,6.228a11.369,11.369,0,0,0,6.65-2.323l2,4.275a15.33,15.33,0,0,1-9.289,2.956c-8.972,0-12.455-5.488-12.455-13.353,0-7.81,4.381-14.672,13.036-14.672C463.4,207.681,466.835,210.32,466.835,215.017Zm-8.972-2.85c-4.223,0-6.123,4.064-6.281,7.97,3.905-.052,9.447-.95,9.447-5.014C461.029,213.17,459.762,212.167,457.863,212.167Z" fill="#fff"/><path d="M481.3,212.009c-2.268,0-3.957,1.056-3.957,3.167,0,2.428,2.532,3.166,5.013,3.853,4.117,1.161,8.656,2.481,8.656,8.233,0,5.488-4.539,8.444-10.186,8.444-3.325,0-7.494-.527-9.711-1.636v-7.336l4.749-.369V228.9a1.584,1.584,0,0,0,1.215,1.794,10.261,10.261,0,0,0,3.483.528c2.639,0,4.17-1,4.17-3.219,0-2.534-2.323-3.008-5.173-3.747-3.9-1-8.18-2.322-8.18-8.181,0-5.489,4.644-8.392,10.185-8.392a20.335,20.335,0,0,1,8.762,2.112v6.333l-4.75.369v-2.216a1.585,1.585,0,0,0-1.214-1.795A7.957,7.957,0,0,0,481.3,212.009Z" fill="#fff"/><path d="M570.329,191.5c-7.055,0-17.976,3.033-26.679,7.866V188.068a5.756,5.756,0,0,0-5.756-5.755h-7.042a5.755,5.755,0,0,0-5.755,5.755V243.1a5.755,5.755,0,0,0,5.755,5.755h7.042a5.756,5.756,0,0,0,5.756-5.755V231.808c8.7,4.832,19.624,7.866,26.679,7.866a24.09,24.09,0,0,0,0-48.179Z" fill="#7b2900"/><path d="M286.148,182.313h-7.042a5.756,5.756,0,0,0-5.756,5.755v11.293c-8.7-4.833-19.624-7.866-26.679-7.866a24.09,24.09,0,0,0,0,48.179c7.055,0,17.976-3.034,26.679-7.866V243.1a5.756,5.756,0,0,0,5.756,5.755h7.042A5.756,5.756,0,0,0,291.9,243.1V188.068A5.756,5.756,0,0,0,286.148,182.313Z" fill="#7b2900"/><path d="M377.337,262.636c1.806,0,3.452.543,3.452,2.667a2.461,2.461,0,0,1-1.47,2.237,2.46,2.46,0,0,1,2.013,2.54c0,2.077-1.438,3.18-4.09,3.18h-4.489v-1.294l.527-.049c.271-.032.463-.127.463-.447v-7.429l-.91-.047v-1.358ZM375.692,267h1.183c1.373,0,1.933-.639,1.933-1.486,0-1.149-.783-1.406-1.822-1.406h-1.294Zm0,4.761h1.5c1.566,0,2.077-.719,2.077-1.693,0-1.07-.735-1.646-2-1.646h-1.582Z" fill="#e77e80"/><path d="M389.532,271.487c0,.351.1.447.4.462l.511.032v1.279H387.9v-.927l-.047-.016a2.656,2.656,0,0,1-2.189,1.15c-2.253,0-3.195-1.6-3.195-3.882,0-2.812,1.342-4.6,4.218-4.6a9.016,9.016,0,0,1,2.843.559Zm-1.853-4.905a3.353,3.353,0,0,0-1.231-.208c-1.517,0-2.028,1.422-2.028,3.147,0,1.326.319,2.588,1.661,2.588a1.489,1.489,0,0,0,1.6-1.39Z" fill="#e77e80"/><path d="M392.412,267.045c0-.351-.1-.463-.4-.479l-.671-.048v-1.294h2.7v1.2a2.5,2.5,0,0,1,2.269-1.438,3.352,3.352,0,0,1,1.533.352v2.38l-1.486.112v-.735c0-.192-.032-.335-.159-.4a.948.948,0,0,0-.432-.08,1.482,1.482,0,0,0-1.454,1.613v3.707l1.39.064v1.262h-4.281v-1.215l.527-.047c.3-.032.464-.128.464-.528Z" fill="#e77e80"/><path d="M404.637,271.327l.686,1.23a4.412,4.412,0,0,1-2.78.926c-2.348,0-3.738-1.485-3.738-4.137,0-3.243,2-4.362,3.8-4.362a5,5,0,0,1,2.492.655v2.077l-1.469.112v-.767c0-.3-.048-.447-.336-.543a1.882,1.882,0,0,0-.623-.1c-1.278,0-1.933.958-1.933,2.732,0,1.741.639,2.859,2.061,2.859A3,3,0,0,0,404.637,271.327Z" fill="#e77e80"/><path d="M412.947,267.205c0,2.46-2.669,2.875-4.553,2.892a1.807,1.807,0,0,0,1.965,1.884,3.444,3.444,0,0,0,2.013-.7l.606,1.294a4.643,4.643,0,0,1-2.811.894c-2.716,0-3.771-1.661-3.771-4.042,0-2.364,1.326-4.441,3.946-4.441C411.908,264.984,412.947,265.783,412.947,267.205Zm-2.716-.863c-1.279,0-1.854,1.23-1.9,2.413,1.182-.017,2.859-.288,2.859-1.518A.85.85,0,0,0,410.231,266.342Z" fill="#e77e80"/><path d="M416.927,271.934l.911.047v1.279h-3.8v-1.215l.527-.047c.287-.032.464-.128.464-.511v-7.876c0-.288-.16-.368-.4-.384l-.56-.032V261.87h2.86Z" fill="#e77e80"/><path d="M422.633,264.984c1.183,0,3.563.368,3.563,4.043,0,3.067-1.71,4.472-3.818,4.472-2.141,0-3.548-1.374-3.548-4.265C418.83,265.911,420.988,264.984,422.633,264.984Zm1.613,4.3c0-1.789-.43-2.892-1.709-2.892-1.262,0-1.773,1.086-1.773,2.62,0,1.486.207,3.084,1.741,3.084C423.752,272.094,424.246,270.943,424.246,269.282Z" fill="#e77e80"/><path d="M427.175,265.224h2.7v1.038a3.145,3.145,0,0,1,2.588-1.278c1.6,0,2.54.9,2.54,2.78v4.17l.911.047v1.279h-3.8v-1.215l.528-.047c.3-.032.463-.128.463-.528v-3.29c0-1.055-.224-1.726-1.31-1.726a1.576,1.576,0,0,0-1.645,1.613v3.867l.911.047v1.279h-3.8v-1.215l.527-.047c.3-.032.464-.128.464-.528v-4.425c0-.351-.112-.479-.4-.5l-.67-.048Z" fill="#e77e80"/><path d="M444.032,271.487c0,.351.1.447.4.462l.511.032v1.279H442.4v-.927l-.047-.016a2.656,2.656,0,0,1-2.19,1.15c-2.252,0-3.194-1.6-3.194-3.882,0-2.812,1.341-4.6,4.217-4.6a9.016,9.016,0,0,1,2.844.559Zm-1.853-4.905a3.353,3.353,0,0,0-1.231-.208c-1.517,0-2.028,1.422-2.028,3.147,0,1.326.319,2.588,1.661,2.588a1.489,1.489,0,0,0,1.6-1.39Z" fill="#e77e80"/><path d="M483.428,262.407a1.6,1.6,0,0,0-1.386.8,84.917,84.917,0,0,1-147.085,0,1.6,1.6,0,0,0-1.385-.8h-6.023a1.62,1.62,0,0,0-1.44,2.369,93.447,93.447,0,0,0,164.782,0,1.62,1.62,0,0,0-1.44-2.369Z" fill="#7b2900"/><path d="M500.883,262.407a1.6,1.6,0,0,0-1.449.925,100.416,100.416,0,0,1-181.868,0,1.6,1.6,0,0,0-1.449-.925h0a1.623,1.623,0,0,0-1.478,2.3,103.673,103.673,0,0,0,187.721,0,1.622,1.622,0,0,0-1.477-2.3Z" fill="#7b2900"/><polygon points="351.54 263.422 356.905 265.59 361.732 262.4 361.328 268.172 365.854 271.778 360.239 273.177 358.209 278.595 355.143 273.688 349.362 273.431 353.082 268.999 351.54 263.422" fill="#e77e80"/><polygon points="463.689 263.357 458.265 265.549 453.384 262.324 453.792 268.16 449.217 271.805 454.893 273.22 456.946 278.698 460.046 273.736 465.89 273.477 462.129 268.996 463.689 263.357" fill="#e77e80"/><polygon points="304.649 117.354 311.159 119.985 317.016 116.114 316.525 123.118 322.017 127.493 315.204 129.19 312.741 135.765 309.021 129.81 302.007 129.499 306.521 124.121 304.649 117.354" fill="#7b2900"/><polygon points="496.595 117.354 503.105 119.985 508.962 116.114 508.472 123.118 513.963 127.493 507.15 129.19 504.687 135.765 500.967 129.81 493.953 129.499 498.467 124.121 496.595 117.354" fill="#7b2900"/><path d="M353.205,110.8a8.681,8.681,0,0,1-.657,7.085,10.361,10.361,0,0,1-5.609,4.8,13.611,13.611,0,0,1-7.49.782,12.12,12.12,0,0,1-6.559-3.406,2.08,2.08,0,0,1-.4-.55,1.923,1.923,0,0,1,.049-1.76,2.837,2.837,0,0,1,1.411-1.343,2.181,2.181,0,0,1,2.152.122c.565.438,1.131.874,1.705,1.311a6.893,6.893,0,0,0,3.566,1.085,9.158,9.158,0,0,0,3.893-.546,5.36,5.36,0,0,0,3-2.467,4.427,4.427,0,0,0,.145-3.654,3.677,3.677,0,0,0-2.68-2.183,23.16,23.16,0,0,0-3.875-.477,65.256,65.256,0,0,1-8.685-.991c-3.448-.747-5.7-2.087-6.675-4.174a6.849,6.849,0,0,1,.535-6.515,11.428,11.428,0,0,1,5.859-5.084,12.507,12.507,0,0,1,7.184-.737,8.9,8.9,0,0,1,5.507,3.221,4.52,4.52,0,0,1-2.33,2.584,2.62,2.62,0,0,1-1.96-.417,13.606,13.606,0,0,0-2.522-1.147,6.591,6.591,0,0,0-3.975.411,6.166,6.166,0,0,0-2.839,2.369,3.115,3.115,0,0,0-.537,3.062c.515,1.2,2.4,1.924,5.569,2.305q3.485.15,6.862.456a15.34,15.34,0,0,1,5.856,1.522A7.405,7.405,0,0,1,353.205,110.8Z" fill="#64261c"/><path d="M393.842,80.948c.2,1.942-1.759,11.282-4.108,28.088-.287,2.157-1.033,3.3-2.264,3.452-1.325.163-2.5-.912-3.581-3.235q-.323-.743-1-2.2c-1.577-3.128-3.9-7.853-7.2-14.09-.351,7.957-.767,14.286-1.391,19a8.012,8.012,0,0,1-.25,1.176,3.086,3.086,0,0,1-2.05,2.03,2.157,2.157,0,0,1-2.2-.917,29.718,29.718,0,0,1-2.335-4.644,128.043,128.043,0,0,0-13.125-21.8c.76-1.6,1.6-2.514,2.5-2.749a2.284,2.284,0,0,1,2.2.952,23.708,23.708,0,0,1,1.463,1.931,122.753,122.753,0,0,1,9.8,16.76c.362-6.689.564-12.269.383-16.729q-.09-1.176-.117-2.341a8.143,8.143,0,0,1,.286-2.37A2.435,2.435,0,0,1,372.85,81.4c1.951-.345,3.623,1.027,4.95,4.091,2.077,4.761,4.872,10.423,8.123,17.071.28-3.028.735-7.575,1.519-13.637.225-1.257.506-3.135.866-5.634a12.312,12.312,0,0,1,.408-2.65,2.432,2.432,0,0,1,2.249-1.611,3.026,3.026,0,0,1,1.957.465A1.838,1.838,0,0,1,393.842,80.948Z" fill="#64261c"/><path d="M426.123,81.465a1.867,1.867,0,0,1-.805,1.382,2.546,2.546,0,0,1-1.769.452c-1.522-.118-3.789-.31-6.816-.5s-6.048-.275-9.061-.269q.256,3.79.255,9.442,2.349,0,4.7.055c.752.018,1.849.037,3.292.074s2.543.088,3.294.132a2.6,2.6,0,0,1,1.678.671,1.78,1.78,0,0,1,.587,1.5c-.12,1.608-1.679,2.283-4.679,2.136-.666-.031-1.656-.075-2.971-.117-1.3-.07-3.288-.138-5.972-.135q.007,5.352.013,10.706a113.8,113.8,0,0,1,12.516.208c2.176.157,3.191,1,3.055,2.482-.132,1.435-1.16,2.057-3.085,1.915-1.473-.106-3.662-.239-6.569-.316s-5.1-.066-6.572-.059a4.829,4.829,0,0,1-3.1-.76,3.772,3.772,0,0,1-1.007-2.893q-.13-4.5-.194-13.463t-.165-13.465c-.058-1.45,6.121-2.659,18.509-1.914C424.646,78.977,426.266,79.93,426.123,81.465Z" fill="#64261c"/><path d="M458.241,87.058a1.869,1.869,0,0,1-1.024,1.231,2.577,2.577,0,0,1-1.83.155c-1.489-.367-3.711-.928-6.68-1.609s-5.947-1.259-8.932-1.745q-.361,3.781-1.281,9.359,2.325.381,4.642.82c.744.141,1.828.339,3.251.611s2.506.5,3.245.669a2.636,2.636,0,0,1,1.556.938,1.775,1.775,0,0,1,.339,1.581c-.383,1.567-2.036,1.976-4.989,1.34-.656-.14-1.629-.345-2.926-.6-1.275-.281-3.236-.673-5.893-1.108q-.863,5.283-1.726,10.566a114.158,114.158,0,0,1,12.37,2.251c2.133.512,3.007,1.517,2.631,2.952-.366,1.394-1.487,1.839-3.374,1.383-1.445-.348-3.6-.838-6.463-1.388s-5.037-.9-6.5-1.131a4.841,4.841,0,0,1-2.947-1.255,3.778,3.778,0,0,1-.526-3.018q.6-4.462,2-13.316t2.025-13.312c.179-1.44,6.477-1.633,18.643,1.132C457.177,84.359,458.634,85.567,458.241,87.058Z" fill="#64261c"/><path d="M493.022,99.59a1.842,1.842,0,0,1-1.315,1.033,2.9,2.9,0,0,1-1.929-.23c.283.155-2.806-1.364-9.438-4q-5.867,15.37-6.519,16.989-1.577,4-3.422,8.678a5.783,5.783,0,0,1-2.963-.057c-1.013-.38-1.251-1.312-.707-2.81.046-.129.11-.3.189-.518a5.228,5.228,0,0,0,.243-.523L469.043,113q1.9-5.862,6.457-18.432c-1.837-.619-3.165-1.049-3.973-1.324-1.567-.532-3.329-1.206-5.3-2.005a3.992,3.992,0,0,1-.525-2.7c.291-1.033,8.627.294,24.15,7.038C492.631,96.836,493.676,98.21,493.022,99.59Z" fill="#64261c"/><path d="M292.019,363.164v-3.44l1.4-.127c.722-.085,1.232-.34,1.232-1.189v-19.75l-2.421-.127v-3.61h10.236v3.44l-1.4.127c-.722.085-1.232.34-1.232,1.359V358.79h7.051c.892,0,.977-.552.977-1.359v-2.973l4.332.3v8.409Z" fill="#7b2900"/><path d="M331.941,347.068c0,6.54-7.093,7.645-12.1,7.687.17,2.761,1.614,5.012,5.224,5.012a9.154,9.154,0,0,0,5.352-1.869l1.614,3.44a12.343,12.343,0,0,1-7.475,2.378c-7.221,0-10.024-4.416-10.024-10.745,0-6.286,3.525-11.807,10.491-11.807C329.18,341.164,331.941,343.287,331.941,347.068Zm-7.22-2.294c-3.4,0-4.927,3.27-5.055,6.414,3.143-.043,7.6-.765,7.6-4.035A2.259,2.259,0,0,0,324.721,344.774Z" fill="#7b2900"/><path d="M341.878,337.3v4.5h5.649l-.425,3.568h-5.224v11.17c0,2.591,1.019,3.355,2.76,3.355a5.671,5.671,0,0,0,2.889-.892l1.274,3.27a10.083,10.083,0,0,1-5.394,1.487c-6.626,0-6.584-4.077-6.584-7.05v-11.34h-3.015l.424-3.1c2.974-.255,3.993-2.548,4.885-4.969Z" fill="#7b2900"/><path d="M357.875,335.259l1.668.781c1.456.674,1.172,1.811.143,2.805l-4.545,4.4-1.384-1.171Z" fill="#7b2900"/><path d="M368.183,344.647c-1.826,0-3.185.849-3.185,2.548,0,1.954,2.039,2.548,4.035,3.1,3.313.934,6.966,2,6.966,6.625,0,4.417-3.653,6.8-8.2,6.8-2.675,0-6.031-.424-7.815-1.316v-5.9l3.823-.3v2.039a1.274,1.274,0,0,0,.977,1.444,8.278,8.278,0,0,0,2.8.425c2.123,0,3.355-.807,3.355-2.591,0-2.039-1.869-2.421-4.162-3.016-3.143-.807-6.583-1.869-6.583-6.583,0-4.417,3.737-6.753,8.2-6.753a16.362,16.362,0,0,1,7.05,1.7v5.1l-3.822.3v-1.784a1.275,1.275,0,0,0-.977-1.444A6.4,6.4,0,0,0,368.183,344.647Z" fill="#7b2900"/><path d="M392.264,341.8h7.178v2.761a7.581,7.581,0,0,1,6.456-3.4c2.718,0,4.671,1.1,5.648,3.4a7.585,7.585,0,0,1,6.456-3.4c3.993,0,6.372,2.378,6.372,7.39v11.085l2.421.128v3.4H416.686v-3.227l1.4-.128c.765-.085,1.19-.34,1.232-1.359v-8.792c0-2.59-.212-4.586-2.93-4.586-2.846,0-4.12,1.868-4.12,4.374v10.193l2.336.128v3.4H404.581v-3.227l1.4-.128c.808-.085,1.232-.34,1.232-1.4v-8.75c0-2.59-.212-4.586-2.93-4.586-2.973,0-4.12,2.081-4.12,4.289v10.278l2.293.128v3.4H392.434v-3.227l1.4-.128c.807-.085,1.232-.34,1.232-1.4h.043V346.685c0-.934-.255-1.274-1.062-1.316l-1.784-.128Z" fill="#7b2900"/><path d="M447.858,358.45c0,.935.255,1.189,1.061,1.232l1.359.085v3.4h-6.752V360.7l-.128-.042a7.055,7.055,0,0,1-5.819,3.057c-5.988,0-8.494-4.247-8.494-10.32,0-7.475,3.568-12.232,11.212-12.232a23.95,23.95,0,0,1,7.561,1.486Zm-4.927-13.039a8.935,8.935,0,0,0-3.271-.552c-4.034,0-5.393,3.78-5.393,8.367,0,3.525.849,6.881,4.416,6.881a3.957,3.957,0,0,0,4.248-3.7Z" fill="#7b2900"/><path d="M454.991,337.723c0-.934-.255-1.189-1.062-1.231l-1.486-.085v-3.525H460v18.39c3.016-.3,5.565-1.911,6.456-4.672.34-1.019-.085-1.4-.679-1.4l-1.614-.085V341.8h8.792v3.44l-2.039.085a9.721,9.721,0,0,1-3.738,6.838l4.162,7.475,2.592.128v3.4h-6.2l-4.841-8.834a20.372,20.372,0,0,1-2.889.6v4.714h.043l2.421.128v3.4H452.358v-3.227l1.4-.128c.807-.085,1.232-.34,1.232-1.4Z" fill="#7b2900"/><path d="M493.044,347.068c0,6.54-7.092,7.645-12.1,7.687.17,2.761,1.614,5.012,5.224,5.012a9.15,9.15,0,0,0,5.351-1.869l1.614,3.44a12.338,12.338,0,0,1-7.475,2.378c-7.22,0-10.023-4.416-10.023-10.745,0-6.286,3.525-11.807,10.491-11.807C490.284,341.164,493.044,343.287,493.044,347.068Zm-7.22-2.294c-3.4,0-4.927,3.27-5.054,6.414,3.143-.043,7.6-.765,7.6-4.035A2.259,2.259,0,0,0,485.824,344.774Z" fill="#7b2900"/><path d="M522.56,358.45c0,.935.255,1.189,1.062,1.232l1.359.085v3.4h-6.752V360.7l-.128-.042a7.056,7.056,0,0,1-5.819,3.057c-5.988,0-8.5-4.247-8.5-10.32,0-7.475,3.568-12.232,11.213-12.232a23.94,23.94,0,0,1,7.56,1.486Zm-4.926-13.039a8.935,8.935,0,0,0-3.271-.552c-4.035,0-5.394,3.78-5.394,8.367,0,3.525.85,6.881,4.417,6.881a3.957,3.957,0,0,0,4.248-3.7Z" fill="#7b2900"/><path d="M318.7,388.683c0-2.675-2.42-3.44-5.394-4.247-4.2-1.147-8.112-2.846-8.112-8.282,0-5.182,3.993-8.325,9.854-8.325a18.54,18.54,0,0,1,7.985,1.741v6.371l-4.333.3v-2.463c0-.807-.127-1.147-.891-1.4a10.033,10.033,0,0,0-2.761-.34c-2.506,0-4.46,1.02-4.46,3.653s2.464,3.355,5.649,4.331c3.865,1.232,7.942,2.974,7.942,8.453,0,5.606-4.417,8.664-10.278,8.664a19.348,19.348,0,0,1-8.579-1.741v-6.711l4.332-.3v2.59c0,.807.127,1.147.892,1.4a10.719,10.719,0,0,0,3.058.383C316.406,392.761,318.7,391.868,318.7,388.683Z" fill="#7b2900"/><path d="M361,371.907c-.892.085-1.189.552-1.4,1.529l-5.352,23.147h-5.819l-4.459-18.9h-.128l-4.332,18.9h-5.988l-5.862-24.506-2.421-.128v-3.61h10.533v3.44l-1.4.128c-.934.085-1.487.467-1.274,1.486l3.695,16.394h.17l4.417-19.2h5.479l4.587,19.282h.085l3.61-17.753-2.294-.17v-3.61H362.4v3.44Z" fill="#7b2900"/><path d="M363.545,396.583v-3.44l1.4-.128c.722-.085,1.232-.339,1.232-1.189V372.077l-2.421-.128v-3.61H383.21v7.05l-4.332.3v-1.7c0-.807-.085-1.317-1.232-1.317H371.36v7.263h9.812v4.332H371.36v7.942H378.2c1.105,0,1.19-.509,1.19-1.359v-2.123l4.332.3v7.56Z" fill="#7b2900"/><path d="M386.351,396.583v-3.44l1.4-.128c.722-.085,1.232-.339,1.232-1.189V372.077l-2.421-.128v-3.61h19.452v7.05l-4.332.3v-1.7c0-.807-.085-1.317-1.232-1.317h-6.286v7.263h9.811v4.332h-9.811v7.942H401c1.1,0,1.19-.509,1.19-1.359v-2.123l4.332.3v7.56Z" fill="#7b2900"/><path d="M416.972,372.544H413.66c-.892,0-.977.6-.977,1.316v2l-4.333-.3v-7.22h22.213v7.22l-4.331.3v-2c0-.806-.085-1.316-1.232-1.316h-2.889v20.3l3.356.127v3.61H413.49v-3.44l2.251-.128c.807-.085,1.231-.339,1.231-1.189Z" fill="#7b2900"/><path d="M454.218,375.092V370.8c0-.722-.382-.977-1.1-1.019l-1.827-.128V366.3h7.9v25.823c.043.723.34.977,1.062.977l1.486.085v3.4h-6.88v-2.506l-.127-.042a6.529,6.529,0,0,1-5.777,3.1c-6.625,0-8.579-5.1-8.579-10.4,0-7.264,3.738-12.148,10.363-12.148A11.193,11.193,0,0,1,454.218,375.092Zm0,3.865a8.113,8.113,0,0,0-3.228-.68c-4.035,0-5.394,3.823-5.394,7.985,0,3.865.934,7.136,4.587,7.136,2.379,0,4.035-1.572,4.035-3.441Z" fill="#7b2900"/><path d="M482.757,391.868c0,.935.255,1.19,1.062,1.232l1.359.085v3.4h-6.753V394.12l-.127-.043a7.055,7.055,0,0,1-5.819,3.058c-5.988,0-8.494-4.247-8.494-10.321,0-7.475,3.567-12.232,11.213-12.232a23.924,23.924,0,0,1,7.559,1.487Zm-4.926-13.039a8.935,8.935,0,0,0-3.271-.552c-4.035,0-5.394,3.78-5.394,8.368,0,3.524.85,6.88,4.417,6.88a3.957,3.957,0,0,0,4.248-3.695Z" fill="#7b2900"/><path d="M502.887,392.548a8.283,8.283,0,0,1-6.88,3.313c-4.248,0-6.583-2.336-6.583-7.348v-8.537c0-.892-.34-1.147-1.062-1.189L487,378.7v-3.483h7.475v12.19c0,2.591.424,4.544,3.143,4.544a4.176,4.176,0,0,0,4.544-4.2v-7.688c0-.934-.255-1.274-1.061-1.274l-1.359-.085v-3.483h7.475v20.557c0,7.008-3.526,9.9-9.854,9.9a21.313,21.313,0,0,1-7.985-1.4v-5.9l4.035-.34v2.039a1.367,1.367,0,0,0,.977,1.529,8.582,8.582,0,0,0,3.016.424c3.907,0,5.478-2.378,5.478-6.243Z" fill="#7b2900"/><path d="M515.5,391.656a2.715,2.715,0,0,1,2.973,2.761,2.912,2.912,0,1,1-2.973-2.761Zm-2.251-22.6c0-1.062.594-2,2.336-2,1.868,0,2.421.935,2.421,2.081v4.97l-.85,14.823h-3.015l-.892-14.823Z" fill="#7b2900"/></svg>